<svg width="52" height="52" viewBox="0 0 52 52" fill="none" xmlns="http://www.w3.org/2000/svg">
<rect width="52" height="52" fill="url(#paint0_linear_10_41)"/>
<g clip-path="url(#clip0_10_41)">
<path d="M34.3886 27.6561C33.8275 27.7837 32.3508 27.8571 32.3508 27.8571L32.1638 28.4369C32.1638 28.4369 32.9002 28.3751 33.4379 28.4292C33.4379 28.4292 33.6132 28.4099 33.6327 28.6263C33.6405 28.8273 33.6171 29.0438 33.6171 29.0438C33.6171 29.0438 33.6054 29.1752 33.4184 29.2061C33.2158 29.2409 31.8287 29.2912 31.8287 29.2912L31.6027 30.045C31.6027 30.045 31.5209 30.2189 31.7079 30.1687C31.8833 30.1223 33.3366 29.8517 33.5275 29.8903C33.7301 29.9406 33.9561 30.2073 33.8898 30.4547C33.8119 30.7562 32.3625 31.6762 31.4781 31.6105C31.4781 31.6105 31.0144 31.6414 30.6209 31.0191C30.2546 30.4276 30.7611 29.3028 30.7611 29.3028C30.7611 29.3028 30.5313 28.7771 30.6988 28.6031C30.6988 28.6031 30.8001 28.5142 31.0884 28.491L31.443 27.7605C31.443 27.7605 31.0378 27.7875 30.7962 27.4937C30.5702 27.2116 30.5546 27.084 30.7261 27.0067C30.9092 26.9178 32.5963 26.6124 33.7574 26.6511C33.7574 26.6511 34.1626 26.6124 34.5093 27.3082C34.5054 27.3082 34.6769 27.5904 34.3886 27.6561ZM30.0209 30.4624C29.8728 30.8103 29.4793 31.1814 28.9922 30.9495C28.5091 30.7176 27.7416 29.1598 27.7416 29.1598C27.7416 29.1598 27.4493 28.5799 27.3948 28.5915C27.3948 28.5915 27.3324 28.4794 27.2935 29.1134C27.2545 29.7473 27.3013 30.9804 27.048 31.1737C26.8064 31.367 26.5142 31.2896 26.3623 31.0616C26.2259 30.8374 26.1675 30.3039 26.2415 29.3685C26.3311 28.4331 26.5493 27.4358 26.8298 27.1227C27.1104 26.8134 27.3363 27.0376 27.4221 27.1188C27.4221 27.1188 27.7961 27.4551 28.4156 28.4446L28.5247 28.6263C28.5247 28.6263 29.0858 29.5618 29.1442 29.5579C29.1442 29.5579 29.191 29.6004 29.2299 29.5695C29.2884 29.554 29.265 29.2525 29.265 29.2525C29.265 29.2525 29.1481 28.2359 28.6377 26.5119C28.6377 26.5119 28.5598 26.2954 28.6143 26.0944C28.665 25.8896 28.8715 25.9862 28.8715 25.9862C28.8715 25.9862 29.6663 26.3805 30.0481 27.6638C30.4261 28.9588 30.1689 30.1145 30.0209 30.4624ZM26.1168 27.1652C26.0506 27.2966 26.0116 27.486 25.6765 27.5363C25.6765 27.5363 22.4699 27.7527 22.318 27.9769C22.318 27.9769 22.205 28.1084 22.3803 28.147C22.5556 28.1818 23.2803 28.2784 23.631 28.2978C24.005 28.3016 25.2674 28.3132 25.7194 28.8737C25.7194 28.8737 25.9882 29.1404 25.9765 29.7435C25.9649 30.3619 25.8558 30.5784 25.6142 30.8026C25.3609 31.0113 23.1868 31.9777 21.7842 30.4934C21.7842 30.4934 21.1374 29.7782 22.0063 29.2371C22.0063 29.2371 22.6336 28.8621 24.2271 29.3028C24.2271 29.3028 24.7103 29.4767 24.6869 29.6507C24.6596 29.8362 24.2895 30.0334 23.7518 30.0218C23.2297 30.0063 22.8479 29.7589 22.9219 29.7976C22.992 29.8246 22.3608 29.4961 22.166 29.7203C21.9712 29.9251 22.018 30.0527 22.2089 30.1803C22.6959 30.4547 24.5778 30.3581 25.1389 29.7396C25.1389 29.7396 25.3609 29.4883 25.022 29.2835C24.683 29.0902 23.7128 28.9742 23.3349 28.9549C22.9725 28.9356 21.6244 28.9588 21.4296 28.6031C21.4296 28.6031 21.2348 28.3635 21.4491 27.6831C21.6751 26.9719 23.2453 26.6974 23.9232 26.6356C23.9232 26.6356 25.7895 26.5699 26.1324 26.9487C26.1285 26.9487 26.1753 27.0376 26.1168 27.1652ZM20.8179 31.336C20.5919 31.5022 20.1127 31.4288 19.9763 31.2433C19.8399 31.077 19.7932 30.416 19.8205 29.3801C19.8477 28.3325 19.8711 27.0337 20.0971 26.8289C20.3387 26.6201 20.4867 26.8018 20.5802 26.9448C20.6815 27.084 20.8023 27.2386 20.8296 27.5672C20.853 27.8958 20.9309 29.6198 20.9309 29.6198C20.9309 29.6198 21.0322 31.1737 20.8179 31.336ZM21.3049 25.7775C20.6465 25.9939 20.1945 25.9205 19.8127 25.7581C19.6451 26.048 19.5477 26.137 19.4192 26.1563C19.2321 26.1756 19.0646 25.878 19.0334 25.7813C19.0023 25.7079 18.9126 25.5842 19.0217 25.2904C18.6477 24.958 18.6204 24.5096 18.6828 24.2081C18.7763 23.8602 19.4075 22.5382 21.3283 22.3836C21.3283 22.3836 22.2673 22.314 22.4271 22.8126H22.4543C22.4543 22.8126 23.3661 22.8165 23.3466 23.6205C23.3349 24.4284 22.3335 25.4334 21.3049 25.7775ZM19.5127 23.9877C19.3178 24.297 19.3101 24.4825 19.3997 24.6101C19.6218 24.2738 20.027 23.7442 20.6231 23.3422C20.1633 23.3809 19.7776 23.578 19.5127 23.9877ZM22.166 23.4698C21.5621 23.5587 20.627 24.3627 20.1828 25.0198C20.8647 25.1435 22.0686 25.0971 22.6024 24.0187C22.5985 24.0187 22.8556 23.3499 22.166 23.4698ZM38.5614 29.6971C38.1991 30.3233 37.1822 31.6298 35.8263 31.3244C35.3782 32.4029 35.0042 33.4891 34.7899 35.1203C34.7899 35.1203 34.7431 35.4373 34.4782 35.3252C34.2171 35.2324 33.7807 34.7995 33.695 34.2004C33.6015 33.4118 33.9561 32.0782 34.6769 30.5513C34.4665 30.2112 34.3223 29.7241 34.447 29.0322C34.447 29.0322 34.6301 27.7489 35.9276 26.5892C35.9276 26.5892 36.0834 26.4539 36.173 26.4964C36.2743 26.539 36.2276 26.9564 36.1458 27.1574C36.0639 27.3584 35.4834 28.3557 35.4834 28.3557C35.4834 28.3557 35.1211 29.0283 35.2224 29.5579C35.9042 28.5181 37.4549 26.4191 38.4173 27.0801C38.7407 27.3082 38.8887 27.8068 38.8887 28.3441C38.8848 28.8196 38.7718 29.3221 38.5614 29.6971ZM38.2809 28.0504C38.2809 28.0504 38.2264 27.6368 37.8212 28.0929C37.4705 28.4756 36.8393 29.1984 36.3289 30.1764C36.8627 30.1184 37.377 29.8285 37.5328 29.6816C37.7861 29.4574 38.3744 28.8544 38.2809 28.0504ZM19.3646 28.5761C19.2906 29.5115 18.9282 31.0848 16.3606 31.8617C14.6657 32.3681 13.0644 32.1246 12.1916 31.9043C12.1721 32.2483 12.1332 32.3952 12.0786 32.4532C12.0046 32.5266 11.4513 32.8436 11.1474 32.3952C11.011 32.1826 10.9409 31.796 10.9019 31.452C8.93823 30.5552 8.0343 29.2641 7.99923 29.2061C7.95637 29.1636 7.5083 28.6998 7.95637 28.1315C8.37717 27.6174 9.75254 27.1033 10.9916 26.8946C11.0344 25.8432 11.1591 25.0508 11.3071 24.6874C11.4864 24.2661 11.7124 24.6449 11.9072 24.9309C12.0708 25.1435 12.1682 26.0596 12.176 26.7902C12.9864 26.7516 13.4657 26.8095 14.3696 26.9719C15.5463 27.1845 16.3333 27.7798 16.2632 28.4562C16.2125 29.1211 15.5969 29.3956 15.3631 29.4149C15.1177 29.4342 14.7359 29.2603 14.7359 29.2603C14.4748 29.1366 14.7164 29.0283 15.032 28.893C15.3748 28.7268 15.2969 28.5567 15.2969 28.5567C15.1683 28.1857 13.641 27.9267 12.1215 27.9267C12.1137 28.7578 12.1565 30.1377 12.176 30.9418C13.2397 31.1428 14.0345 31.1041 14.0345 31.1041C14.0345 31.1041 17.9152 30.9959 18.0321 28.5374C18.1529 26.0751 14.1631 23.7133 11.2136 22.9634C8.26807 22.198 6.60047 22.7315 6.45631 22.8049C6.30046 22.8822 6.44462 22.9054 6.44462 22.9054C6.44462 22.9054 6.60437 22.9286 6.881 23.0214C7.17322 23.1141 6.94724 23.2649 6.94724 23.2649C6.44462 23.4234 5.87967 23.3229 5.77057 23.0948C5.66148 22.8668 5.8446 22.6619 6.055 22.3681C6.2654 22.0589 6.49528 22.0705 6.49528 22.0705C10.1383 20.818 14.5761 23.0832 14.5761 23.0832C18.7334 25.1744 19.4425 27.6252 19.3646 28.5761ZM8.36937 28.4485C7.95637 28.6495 8.2408 28.9394 8.2408 28.9394C9.01615 29.7666 9.97073 30.2846 10.8786 30.6055C10.9838 29.1791 10.9682 28.6766 10.9799 27.9576C9.56163 28.0542 8.74341 28.2784 8.36937 28.4485Z" fill="white"/>
<path d="M46.276 28.1547V28.665C46.276 28.7771 46.1864 28.866 46.0734 28.866H43.6227C43.6227 28.9935 43.6266 29.1056 43.6266 29.21C43.6266 29.9638 43.5954 30.5784 43.5214 31.2703C43.5097 31.3747 43.424 31.452 43.3227 31.452H42.7928C42.7382 31.452 42.6876 31.4288 42.6525 31.3902C42.6174 31.3515 42.598 31.2974 42.6058 31.2433C42.6798 30.5552 42.7148 29.9483 42.7148 29.21C42.7148 29.1018 42.7149 28.9897 42.711 28.866H40.2875C40.1745 28.866 40.0849 28.7771 40.0849 28.665V28.1547C40.0849 28.0426 40.1745 27.9537 40.2875 27.9537H42.6759C42.6252 27.1227 42.5239 26.3225 42.3603 25.5107C42.3525 25.4605 42.3642 25.4102 42.3954 25.3716C42.4265 25.3329 42.4733 25.3097 42.5239 25.3097H43.0967C43.1863 25.3097 43.2603 25.3716 43.2798 25.4605C43.4396 26.2993 43.5409 27.1149 43.5915 27.9537H46.0734C46.1825 27.9537 46.276 28.0465 46.276 28.1547Z" fill="white"/>
<path d="M42.9408 24.1076C41.6745 21.019 39.5355 18.3867 36.7536 16.4926C33.9054 14.556 30.5663 13.5316 27.0987 13.5316C21.3634 13.5316 16.0411 16.3573 12.8657 21.0925C12.8306 21.1427 12.8228 21.2085 12.8423 21.2664C12.8618 21.3283 12.9085 21.3708 12.967 21.3901L13.4111 21.5409C13.4384 21.5486 13.4657 21.5525 13.4891 21.5525C13.5709 21.5525 13.6488 21.51 13.6956 21.4443C15.1528 19.3182 17.1243 17.5517 19.3997 16.3302C21.7491 15.0701 24.4102 14.4013 27.0948 14.4013C30.3403 14.4013 33.469 15.3522 36.1497 17.1458C38.764 18.8969 40.794 21.3438 42.0213 24.2158C42.0564 24.3008 42.1421 24.3588 42.2356 24.3588H42.7655C42.8278 24.3588 42.8863 24.3279 42.9175 24.2777C42.9564 24.2274 42.9642 24.1656 42.9408 24.1076ZM13.4891 21.4211L13.4968 21.4211C13.4968 21.4211 13.4929 21.4211 13.4891 21.4211ZM42.1265 24.2893C42.1382 24.297 42.1499 24.3047 42.1616 24.3086C42.1499 24.3008 42.1382 24.297 42.1265 24.2893Z" fill="white"/>
</g>
<defs>
<linearGradient id="paint0_linear_10_41" x1="26" y1="0" x2="26" y2="52" gradientUnits="userSpaceOnUse">
<stop stop-color="#020B3E"/>
<stop offset="1" stop-color="#020B3E" stop-opacity="0.85"/>
</linearGradient>
<clipPath id="clip0_10_41">
<rect width="40.56" height="21.84" fill="white" transform="translate(5.71997 13.52)"/>
</clipPath>
</defs>
</svg>
