<svg width="32" height="31" viewBox="0 0 32 31" fill="none" xmlns="http://www.w3.org/2000/svg">
<circle cx="21.9759" cy="5.01206" r="4.01205" transform="rotate(-180 21.9759 5.01206)" stroke="white" stroke-width="2"/>
<path fill-rule="evenodd" clip-rule="evenodd" d="M16.2437 4.24099C16.2101 4.49324 16.1928 4.75063 16.1928 5.01207C16.1928 5.43378 16.2379 5.84494 16.3236 6.24099L1 6.24099C0.44772 6.24099 3.85384e-06 5.79328 3.90212e-06 5.24099C3.9504e-06 4.68871 0.44772 4.24099 1 4.24099L16.2437 4.24099ZM27.7081 4.24099L31 4.24099C31.5523 4.24099 32 4.68871 32 5.24099C32 5.79328 31.5523 6.24099 31 6.24099L27.6282 6.24099C27.7139 5.84494 27.759 5.43378 27.759 5.01207C27.759 4.75063 27.7417 4.49324 27.7081 4.24099Z" fill="white"/>
<path fill-rule="evenodd" clip-rule="evenodd" d="M14.2141 15.8072C14.2477 15.555 14.265 15.2976 14.265 15.0361C14.265 14.6144 14.2199 14.2033 14.1342 13.8072L31 13.8072C31.5523 13.8072 32 14.2549 32 14.8072C32 15.3595 31.5523 15.8072 31 15.8072L14.2141 15.8072ZM2.74972 15.8072L1 15.8072C0.447715 15.8072 0 15.3595 0 14.8072C0 14.2549 0.447715 13.8072 1 13.8072L2.8296 13.8072C2.7439 14.2033 2.69876 14.6144 2.69876 15.0361C2.69876 15.2976 2.71611 15.555 2.74972 15.8072Z" fill="white"/>
<path d="M12.4939 15.0362C12.4939 17.252 10.6977 19.0482 8.4819 19.0482C6.2661 19.0482 4.46985 17.252 4.46985 15.0362C4.46985 12.8204 6.2661 11.0241 8.4819 11.0241C10.6977 11.0241 12.4939 12.8204 12.4939 15.0362Z" stroke="white" stroke-width="2"/>
<path fill-rule="evenodd" clip-rule="evenodd" d="M25.0093 25.8313C25.0429 25.5791 25.0603 25.3217 25.0603 25.0602C25.0603 24.6385 25.0152 24.2274 24.9295 23.8313L31 23.8313C31.5523 23.8313 32 24.279 32 24.8313C32 25.3836 31.5523 25.8313 31 25.8313L25.0093 25.8313ZM13.545 25.8313L1 25.8313C0.447715 25.8313 0 25.3836 0 24.8313C0 24.279 0.447715 23.8313 1 23.8313L13.6249 23.8313C13.5392 24.2274 13.494 24.6385 13.494 25.0602C13.494 25.3217 13.5114 25.5791 13.545 25.8313Z" fill="white"/>
<path d="M23.2891 25.0602C23.2891 27.276 21.4929 29.0723 19.2771 29.0723C17.0613 29.0723 15.265 27.276 15.265 25.0602C15.265 22.8444 17.0613 21.0482 19.2771 21.0482C21.4929 21.0482 23.2891 22.8444 23.2891 25.0602Z" stroke="white" stroke-width="2"/>
</svg>
