<svg width="52" height="52" viewBox="0 0 52 52" fill="none" xmlns="http://www.w3.org/2000/svg">
<rect width="52" height="52" fill="url(#paint0_linear_11_43)"/>
<path d="M19.3398 32.6697H15.8096V27.7437H13.5179V32.6697H9.89356L9.88013 19.9727H13.5179V24.6967H15.8096V19.9727H19.3398V32.6697ZM35.5175 32.7301C39.158 32.7275 42.12 29.7737 42.12 26.2162C42.1253 25.3675 41.9583 24.5261 41.6284 23.7409C41.2986 22.9557 40.8126 22.2422 40.1985 21.6417C39.5844 21.0413 38.8545 20.5658 38.051 20.2428C37.2475 19.9198 36.3864 19.7557 35.5175 19.7601C31.8812 19.7575 30.0233 22.3727 29.5639 23.4277C29.5679 21.8439 27.9694 19.974 26.0981 19.9713H20.076V32.6658L25.6924 32.6671C27.9573 32.6671 29.5693 30.7513 29.572 29.1071C30.0892 30.1411 31.8825 32.7314 35.5189 32.7288L35.5175 32.7301ZM25.2209 27.5652C25.7408 27.5652 26.1505 28.0665 26.1505 28.6373C26.1505 29.2081 25.7408 29.7094 25.2209 29.7094H23.4343V27.5652H25.2209ZM25.2277 22.7979C25.7475 22.7979 26.1572 23.2991 26.1572 23.87C26.1572 24.4421 25.7475 24.9434 25.2277 24.9434H23.441V22.7979H25.2277ZM27.6053 26.2188C28.0151 26.1677 28.6975 25.711 28.9379 25.4184C28.8533 25.7806 28.8466 26.8277 28.946 27.1899C28.6719 26.7779 28.0218 26.27 27.6053 26.2188ZM32.213 26.2188C32.213 25.7946 32.2985 25.3745 32.4647 24.9825C32.6309 24.5905 32.8745 24.2344 33.1816 23.9344C33.4887 23.6344 33.8533 23.3964 34.2546 23.2341C34.6558 23.0717 35.0859 22.9882 35.5202 22.9882C35.9546 22.9882 36.3846 23.0717 36.7859 23.2341C37.1871 23.3964 37.5517 23.6344 37.8588 23.9344C38.1659 24.2344 38.4095 24.5905 38.5758 24.9825C38.742 25.3745 38.8275 25.7946 38.8275 26.2188C38.8275 27.0759 38.479 27.8978 37.8586 28.5038C37.2383 29.1098 36.3969 29.4502 35.5196 29.4502C34.6422 29.4502 33.8009 29.1098 33.1805 28.5038C32.5601 27.8978 32.2116 27.0759 32.2116 26.2188H32.213ZM35.5202 28.7593C36.21 28.7593 36.8715 28.4917 37.3592 28.0152C37.8469 27.5388 38.1209 26.8926 38.1209 26.2188C38.1209 25.5451 37.8469 24.8989 37.3592 24.4225C36.8715 23.946 36.21 23.6784 35.5202 23.6784C34.8305 23.6784 34.169 23.946 33.6813 24.4225C33.1935 24.8989 32.9195 25.5451 32.9195 26.2188C32.9195 26.8926 33.1935 27.5388 33.6813 28.0152C34.169 28.4917 34.8305 28.7593 35.5202 28.7593Z" fill="white"/>
<defs>
<linearGradient id="paint0_linear_11_43" x1="26" y1="0" x2="26" y2="52" gradientUnits="userSpaceOnUse">
<stop stop-color="#9739FF"/>
<stop offset="1" stop-color="#9739FF" stop-opacity="0.85"/>
</linearGradient>
</defs>
</svg>
