<svg width="52" height="52" viewBox="0 0 52 52" fill="none" xmlns="http://www.w3.org/2000/svg">
<rect width="52" height="52" fill="url(#paint0_linear_11_47)"/>
<path d="M29.6363 31.4519H32.2047V20.8H29.6363V31.4519ZM25.1267 28.4154C25.1246 28.5974 25.0514 28.7713 24.9229 28.8999C24.7943 29.0285 24.6206 29.1014 24.4389 29.1032H22.9465C22.7648 29.1014 22.5911 29.0285 22.4625 28.8999C22.334 28.7713 22.2608 28.5974 22.2587 28.4154V24.1218H19.6902V28.624C19.6902 30.4653 20.871 31.4371 22.6026 31.4371H25.1119C26.7092 31.4371 27.6804 30.2849 27.6804 28.624V24.1205H25.1119C25.1254 24.1205 25.1254 28.2795 25.1254 28.4141L25.1267 28.4154ZM39.5676 24.1218V28.4154C39.5655 28.5974 39.4923 28.7713 39.3637 28.8999C39.2351 29.0285 39.0614 29.1014 38.8798 29.1032H37.386C37.2046 29.1011 37.0312 29.028 36.9029 28.8994C36.7746 28.7709 36.7016 28.5972 36.6995 28.4154V24.1218H34.1311V28.624C34.1311 30.4653 35.3105 31.4371 37.0421 31.4371H39.5514C41.15 31.4371 42.1199 30.2849 42.1199 28.624V24.1205L39.5676 24.1218ZM14.9577 24.1218H13.3148C12.7318 24.1218 12.4483 24.2699 12.4483 24.2699V20.8013H9.87988V31.4384H12.4322V27.1596C12.4322 26.7855 12.7466 26.4718 13.12 26.4718H14.6138C14.9872 26.4718 15.3002 26.7855 15.3002 27.1596V31.4532H17.8687V26.8151C17.8687 24.8702 16.5697 24.1232 14.9577 24.1232V24.1218Z" fill="white"/>
<defs>
<linearGradient id="paint0_linear_11_47" x1="26" y1="0" x2="26" y2="52" gradientUnits="userSpaceOnUse">
<stop stop-color="#1CDB7C"/>
<stop offset="1" stop-color="#1CDB7C" stop-opacity="0.85"/>
</linearGradient>
</defs>
</svg>
