<svg viewBox="0 0 668 126" fill="none" xmlns="http://www.w3.org/2000/svg">
<path d="M161.128 40.328L148.648 85H138.088L129.704 53.192L120.936 85L110.44 85.064L98.408 40.328H108.008L115.88 75.016L124.968 40.328H134.952L143.528 74.824L151.464 40.328H161.128Z" fill="white"/>
<path d="M204.034 40.328V85H195.074V65.992H175.938V85H166.978V40.328H175.938V58.696H195.074V40.328H204.034Z" fill="white"/>
<path d="M240.245 76.488H222.453L219.509 85H210.101L226.165 40.264H236.597L252.661 85H243.189L240.245 76.488ZM237.813 69.32L231.349 50.632L224.885 69.32H237.813Z" fill="white"/>
<path d="M289.066 40.328V47.56H277.162V85H268.202V47.56H256.298V40.328H289.066Z" fill="white"/>
<path d="M297.395 40.328H306.803L299.891 56.456H293.747L297.395 40.328Z" fill="white"/>
<path d="M328.652 85.448C325.538 85.448 322.722 84.9147 320.204 83.848C317.73 82.7813 315.767 81.2453 314.316 79.24C312.866 77.2347 312.119 74.8667 312.076 72.136H321.676C321.804 73.9707 322.444 75.4213 323.596 76.488C324.791 77.5547 326.412 78.088 328.46 78.088C330.551 78.088 332.194 77.5973 333.388 76.616C334.583 75.592 335.18 74.2693 335.18 72.648C335.18 71.3253 334.775 70.2373 333.964 69.384C333.154 68.5307 332.13 67.8693 330.892 67.4C329.698 66.888 328.034 66.3333 325.9 65.736C322.999 64.8827 320.631 64.0507 318.796 63.24C317.004 62.3867 315.447 61.128 314.124 59.464C312.844 57.7573 312.204 55.496 312.204 52.68C312.204 50.0347 312.866 47.7307 314.188 45.768C315.511 43.8053 317.367 42.312 319.756 41.288C322.146 40.2213 324.876 39.688 327.948 39.688C332.556 39.688 336.29 40.8187 339.148 43.08C342.05 45.2987 343.65 48.4133 343.948 52.424H334.092C334.007 50.888 333.346 49.6293 332.108 48.648C330.914 47.624 329.314 47.112 327.308 47.112C325.559 47.112 324.151 47.56 323.084 48.456C322.06 49.352 321.548 50.6533 321.548 52.36C321.548 53.5547 321.932 54.5573 322.7 55.368C323.511 56.136 324.492 56.776 325.644 57.288C326.839 57.7573 328.503 58.312 330.636 58.952C333.538 59.8053 335.906 60.6587 337.74 61.512C339.575 62.3653 341.154 63.6453 342.476 65.352C343.799 67.0587 344.46 69.2987 344.46 72.072C344.46 74.4613 343.842 76.68 342.604 78.728C341.367 80.776 339.554 82.4187 337.164 83.656C334.775 84.8507 331.938 85.448 328.652 85.448Z" fill="white"/>
<path d="M496.128 40.328L483.648 85H473.088L464.704 53.192L455.936 85L445.44 85.064L433.408 40.328H443.008L450.88 75.016L459.968 40.328H469.952L478.528 74.824L486.464 40.328H496.128ZM539.035 40.328V85H530.075V65.992H510.939V85H501.979V40.328H510.939V58.696H530.075V40.328H539.035ZM575.246 76.488H557.454L554.51 85H545.102L561.166 40.264H571.598L587.662 85H578.19L575.246 76.488ZM572.814 69.32L566.35 50.632L559.885 69.32H572.814ZM624.066 40.328V47.56H612.162V85H603.202V47.56H591.298V40.328H624.066ZM643.083 38.792C647.521 38.792 651.084 40.008 653.772 42.44C656.502 44.8293 657.868 48.136 657.868 52.36C657.868 56.5413 656.524 59.7413 653.836 61.96C651.148 64.136 647.585 65.224 643.148 65.224L642.892 70.152H635.02L634.7 59.272H637.58C641.292 59.272 644.15 58.7813 646.156 57.8C648.161 56.8187 649.164 55.0267 649.164 52.424C649.164 50.5467 648.609 49.0533 647.5 47.944C646.433 46.8347 644.961 46.28 643.083 46.28C641.121 46.28 639.585 46.8133 638.476 47.88C637.409 48.9467 636.876 50.4187 636.876 52.296H628.428C628.385 49.6933 628.94 47.368 630.092 45.32C631.244 43.272 632.929 41.672 635.148 40.52C637.409 39.368 640.054 38.792 643.083 38.792ZM638.924 85.448C637.302 85.448 635.958 84.9573 634.892 83.976C633.868 82.952 633.356 81.6933 633.356 80.2C633.356 78.7067 633.868 77.4693 634.892 76.488C635.958 75.464 637.302 74.952 638.924 74.952C640.502 74.952 641.804 75.464 642.828 76.488C643.852 77.4693 644.364 78.7067 644.364 80.2C644.364 81.6933 643.852 82.952 642.828 83.976C641.804 84.9573 640.502 85.448 638.924 85.448Z" fill="white"/>
<path d="M378.576 74.224C376.485 74.224 374.565 73.7333 372.816 72.752C371.067 71.7707 369.68 70.416 368.656 68.688C367.632 66.9387 367.12 64.9653 367.12 62.768C367.12 60.592 367.632 58.64 368.656 56.912C369.68 55.1627 371.067 53.7973 372.816 52.816C374.565 51.8347 376.485 51.344 378.576 51.344C380.688 51.344 382.608 51.8347 384.336 52.816C386.085 53.7973 387.461 55.1627 388.464 56.912C389.488 58.64 390 60.592 390 62.768C390 64.9653 389.488 66.9387 388.464 68.688C387.461 70.416 386.085 71.7707 384.336 72.752C382.587 73.7333 380.667 74.224 378.576 74.224ZM378.576 70.224C379.92 70.224 381.104 69.9253 382.128 69.328C383.152 68.7093 383.952 67.8347 384.528 66.704C385.104 65.5733 385.392 64.2613 385.392 62.768C385.392 61.2747 385.104 59.9733 384.528 58.864C383.952 57.7333 383.152 56.8693 382.128 56.272C381.104 55.6747 379.92 55.376 378.576 55.376C377.232 55.376 376.037 55.6747 374.992 56.272C373.968 56.8693 373.168 57.7333 372.592 58.864C372.016 59.9733 371.728 61.2747 371.728 62.768C371.728 64.2613 372.016 65.5733 372.592 66.704C373.168 67.8347 373.968 68.7093 374.992 69.328C376.037 69.9253 377.232 70.224 378.576 70.224ZM412.437 74H407.957L397.813 58.672V74H393.333V51.632H397.813L407.957 66.992V51.632H412.437V74Z" fill="white"/>
<rect width="85.6845" height="52.1431" transform="matrix(0.965944 -0.258751 0.258887 0.965908 2.73438 58.6346)" fill="#252525"/>
<rect width="76.0605" height="1.55188" transform="matrix(0.965944 -0.258751 0.258887 0.965908 9.84399 67.173)" fill="#D9D9D9"/>
<rect width="76.0605" height="1.55188" transform="matrix(0.965944 -0.258751 0.258887 0.965908 13.9821 82.6124)" fill="#D9D9D9"/>
<rect width="46.2572" height="1.55188" transform="matrix(0.965944 -0.258751 0.258887 0.965908 15.549 88.4583)" fill="#D9D9D9"/>
<rect width="76.0605" height="1.55188" transform="matrix(0.965944 -0.258751 0.258887 0.965908 17.1561 94.4542)" fill="#D9D9D9"/>
<rect width="76.0605" height="1.55188" transform="matrix(0.965944 -0.258751 0.258887 0.965908 18.7631 100.45)" fill="#D9D9D9"/>
<rect width="1.39703" height="14.4325" transform="matrix(0.965944 -0.258751 0.258887 0.965908 31.0873 63.0891)" fill="#D9D9D9"/>
<rect width="1.39703" height="11.4839" transform="matrix(0.965944 -0.258751 0.258887 0.965908 58.8649 71.3928)" fill="#D9D9D9"/>
<rect width="1.39703" height="14.4325" transform="matrix(0.965944 -0.258751 0.258887 0.965908 59.126 55.5782)" fill="#D9D9D9"/>
<path d="M14.1492 63.4492L19.4178 54.3262L29.3138 51.6754L24.0452 60.7983L14.1492 63.4492Z" fill="white"/>
<path d="M32.1419 58.6294L37.4105 49.5065L47.3065 46.8556L42.0379 55.9786L32.1419 58.6294Z" fill="white"/>
<path d="M50.1346 53.8097L55.4032 44.6867L65.2992 42.0358L60.0306 51.1588L50.1346 53.8097Z" fill="white"/>
<path d="M67.9774 49.03L73.246 39.9071L83.142 37.2562L77.8734 46.3792L67.9774 49.03Z" fill="white"/>
<rect width="85.6801" height="7.60459" transform="matrix(0.866086 -0.499894 0.500106 0.865964 0 50.831)" fill="#252525"/>
<path d="M8.60365 45.8651L18.7819 48.5915L27.6544 43.4704L17.4761 40.744L8.60365 45.8651Z" fill="white"/>
<path d="M24.7355 36.554L34.9137 39.2805L43.7862 34.1594L33.608 31.4329L24.7355 36.554Z" fill="white"/>
<path d="M40.8673 27.2429L51.0455 29.9694L59.918 24.8483L49.7398 22.1218L40.8673 27.2429Z" fill="white"/>
<path d="M56.8647 18.0094L67.0429 20.7359L75.9154 15.6148L65.7372 12.8883L56.8647 18.0094Z" fill="white"/>
<path d="M3.64962 62.0494L1.3817 53.5878C0.952765 51.9874 1.90244 50.3426 3.50287 49.9138L5.23905 49.4488C7.45621 48.8548 9.81862 49.1658 11.8067 50.3133L19.0745 54.5082C21.273 55.7771 22.0263 58.588 20.757 60.7859C19.9446 62.1927 18.6066 63.2191 17.0372 63.6395L9.77378 65.5852C7.1064 66.2997 4.36452 64.7167 3.64962 62.0494Z" fill="#353432"/>
<circle cx="7" cy="61" r="1" fill="#D9D9D9"/>
<circle cx="18" cy="59" r="1" fill="#D9D9D9"/>
<circle cx="5" cy="52" r="1" fill="#D9D9D9"/>
</svg>
