<svg viewBox="0 0 892 167" fill="none" xmlns="http://www.w3.org/2000/svg">
<rect width="892" height="166" fill="#3ea3b5" />
 <!--ABOVE THIS LINE CHANGE IFLl #3ea3b5  #00A8E1-->
<g filter="url(#filter0_d_4_50)">
<path d="M145.18 51.18L127.63 114H112.78L100.99 69.27L88.66 114L73.9 114.09L56.98 51.18H70.48L81.55 99.96L94.33 51.18H108.37L120.43 99.69L131.59 51.18H145.18ZM205.517 51.18V114H192.917V87.27H166.007V114H153.407V51.18H166.007V77.01H192.917V51.18H205.517ZM256.439 102.03H231.419L227.279 114H214.049L236.639 51.09H251.309L273.899 114H260.579L256.439 102.03ZM253.019 91.95L243.929 65.67L234.839 91.95H253.019ZM325.093 51.18V61.35H308.353V114H295.753V61.35H279.013V51.18H325.093ZM336.806 51.18H350.036L340.316 73.86H331.676L336.806 51.18ZM380.761 114.63C376.381 114.63 372.421 113.88 368.881 112.38C365.401 110.88 362.641 108.72 360.601 105.9C358.561 103.08 357.511 99.75 357.451 95.91H370.951C371.131 98.49 372.031 100.53 373.651 102.03C375.331 103.53 377.611 104.28 380.491 104.28C383.431 104.28 385.741 103.59 387.421 102.21C389.101 100.77 389.941 98.91 389.941 96.63C389.941 94.77 389.371 93.24 388.231 92.04C387.091 90.84 385.651 89.91 383.911 89.25C382.231 88.53 379.891 87.75 376.891 86.91C372.811 85.71 369.481 84.54 366.901 83.4C364.381 82.2 362.191 80.43 360.331 78.09C358.531 75.69 357.631 72.51 357.631 68.55C357.631 64.83 358.561 61.59 360.421 58.83C362.281 56.07 364.891 53.97 368.251 52.53C371.611 51.03 375.451 50.28 379.771 50.28C386.251 50.28 391.501 51.87 395.521 55.05C399.601 58.17 401.851 62.55 402.271 68.19H388.411C388.291 66.03 387.361 64.26 385.621 62.88C383.941 61.44 381.691 60.72 378.871 60.72C376.411 60.72 374.431 61.35 372.931 62.61C371.491 63.87 370.771 65.7 370.771 68.1C370.771 69.78 371.311 71.19 372.391 72.33C373.531 73.41 374.911 74.31 376.531 75.03C378.211 75.69 380.551 76.47 383.551 77.37C387.631 78.57 390.961 79.77 393.541 80.97C396.121 82.17 398.341 83.97 400.201 86.37C402.061 88.77 402.991 91.92 402.991 95.82C402.991 99.18 402.121 102.3 400.381 105.18C398.641 108.06 396.091 110.37 392.731 112.11C389.371 113.79 385.381 114.63 380.761 114.63Z" fill="white"/>
</g>
<g filter="url(#filter1_d_4_50)">
<path d="M459.864 99.336C456.728 99.336 453.848 98.6 451.224 97.128C448.6 95.656 446.52 93.624 444.984 91.032C443.448 88.408 442.68 85.448 442.68 82.152C442.68 78.888 443.448 75.96 444.984 73.368C446.52 70.744 448.6 68.696 451.224 67.224C453.848 65.752 456.728 65.016 459.864 65.016C463.032 65.016 465.912 65.752 468.504 67.224C471.128 68.696 473.192 70.744 474.696 73.368C476.232 75.96 477 78.888 477 82.152C477 85.448 476.232 88.408 474.696 91.032C473.192 93.624 471.128 95.656 468.504 97.128C465.88 98.6 463 99.336 459.864 99.336ZM459.864 93.336C461.88 93.336 463.656 92.888 465.192 91.992C466.728 91.064 467.928 89.752 468.792 88.056C469.656 86.36 470.088 84.392 470.088 82.152C470.088 79.912 469.656 77.96 468.792 76.296C467.928 74.6 466.728 73.304 465.192 72.408C463.656 71.512 461.88 71.064 459.864 71.064C457.848 71.064 456.056 71.512 454.488 72.408C452.952 73.304 451.752 74.6 450.888 76.296C450.024 77.96 449.592 79.912 449.592 82.152C449.592 84.392 450.024 86.36 450.888 88.056C451.752 89.752 452.952 91.064 454.488 91.992C456.056 92.888 457.848 93.336 459.864 93.336ZM510.656 99H503.936L488.72 76.008V99H482V65.448H488.72L503.936 88.488V65.448H510.656V99Z" fill="white"/>
</g>
<g filter="url(#filter2_d_4_50)">
<path d="M637.18 51.18L619.63 114H604.78L592.99 69.27L580.66 114L565.9 114.09L548.98 51.18H562.48L573.55 99.96L586.33 51.18H600.37L612.43 99.69L623.59 51.18H637.18ZM697.517 51.18V114H684.917V87.27H658.007V114H645.407V51.18H658.007V77.01H684.917V51.18H697.517ZM748.439 102.03H723.419L719.279 114H706.049L728.639 51.09H743.309L765.899 114H752.579L748.439 102.03ZM745.019 91.95L735.929 65.67L726.839 91.95H745.019ZM817.093 51.18V61.35H800.353V114H787.753V61.35H771.013V51.18H817.093Z" fill="white"/>
</g>
<defs>
<filter id="filter0_d_4_50" x="52.98" y="50.28" width="354.011" height="72.35" filterUnits="userSpaceOnUse" color-interpolation-filters="sRGB">
<feFlood flood-opacity="0" result="BackgroundImageFix"/>
<feColorMatrix in="SourceAlpha" type="matrix" values="0 0 0 0 0 0 0 0 0 0 0 0 0 0 0 0 0 0 127 0" result="hardAlpha"/>
<feOffset dy="4"/>
<feGaussianBlur stdDeviation="2"/>
<feComposite in2="hardAlpha" operator="out"/>
<feColorMatrix type="matrix" values="0 0 0 0 0 0 0 0 0 0 0 0 0 0 0 0 0 0 0.25 0"/>
<feBlend mode="normal" in2="BackgroundImageFix" result="effect1_dropShadow_4_50"/>
<feBlend mode="normal" in="SourceGraphic" in2="effect1_dropShadow_4_50" result="shape"/>
</filter>
<filter id="filter1_d_4_50" x="438.68" y="65.016" width="75.9755" height="42.32" filterUnits="userSpaceOnUse" color-interpolation-filters="sRGB">
<feFlood flood-opacity="0" result="BackgroundImageFix"/>
<feColorMatrix in="SourceAlpha" type="matrix" values="0 0 0 0 0 0 0 0 0 0 0 0 0 0 0 0 0 0 127 0" result="hardAlpha"/>
<feOffset dy="4"/>
<feGaussianBlur stdDeviation="2"/>
<feComposite in2="hardAlpha" operator="out"/>
<feColorMatrix type="matrix" values="0 0 0 0 0 0 0 0 0 0 0 0 0 0 0 0 0 0 0.25 0"/>
<feBlend mode="normal" in2="BackgroundImageFix" result="effect1_dropShadow_4_50"/>
<feBlend mode="normal" in="SourceGraphic" in2="effect1_dropShadow_4_50" result="shape"/>
</filter>
<filter id="filter2_d_4_50" x="544.98" y="51.09" width="276.113" height="71" filterUnits="userSpaceOnUse" color-interpolation-filters="sRGB">
<feFlood flood-opacity="0" result="BackgroundImageFix"/>
<feColorMatrix in="SourceAlpha" type="matrix" values="0 0 0 0 0 0 0 0 0 0 0 0 0 0 0 0 0 0 127 0" result="hardAlpha"/>
<feOffset dy="4"/>
<feGaussianBlur stdDeviation="2"/>
<feComposite in2="hardAlpha" operator="out"/>
<feColorMatrix type="matrix" values="0 0 0 0 0 0 0 0 0 0 0 0 0 0 0 0 0 0 0.25 0"/>
<feBlend mode="normal" in2="BackgroundImageFix" result="effect1_dropShadow_4_50"/>
<feBlend mode="normal" in="SourceGraphic" in2="effect1_dropShadow_4_50" result="shape"/>
</filter>
</defs>
</svg>
