<svg viewBox="0 0 603 126" fill="none" xmlns="http://www.w3.org/2000/svg">
<path d="M96.128 40.328L83.648 85H73.088L64.704 53.192L55.936 85L45.44 85.064L33.408 40.328H43.008L50.88 75.016L59.968 40.328H69.952L78.528 74.824L86.464 40.328H96.128ZM139.035 40.328V85H130.075V65.992H110.939V85H101.979V40.328H110.939V58.696H130.075V40.328H139.035ZM175.246 76.488H157.454L154.51 85H145.102L161.166 40.264H171.598L187.662 85H178.19L175.246 76.488ZM172.814 69.32L166.35 50.632L159.885 69.32H172.814ZM224.066 40.328V47.56H212.162V85H203.202V47.56H191.298V40.328H224.066ZM232.396 40.328H241.804L234.892 56.456H228.748L232.396 40.328ZM263.653 85.448C260.538 85.448 257.722 84.9147 255.205 83.848C252.73 82.7813 250.767 81.2453 249.317 79.24C247.866 77.2347 247.119 74.8667 247.077 72.136H256.677C256.805 73.9707 257.445 75.4213 258.597 76.488C259.791 77.5547 261.413 78.088 263.461 78.088C265.551 78.088 267.194 77.5973 268.389 76.616C269.583 75.592 270.181 74.2693 270.181 72.648C270.181 71.3253 269.775 70.2373 268.965 69.384C268.154 68.5307 267.13 67.8693 265.893 67.4C264.698 66.888 263.034 66.3333 260.901 65.736C257.999 64.8827 255.631 64.0507 253.797 63.24C252.005 62.3867 250.447 61.128 249.125 59.464C247.845 57.7573 247.205 55.496 247.205 52.68C247.205 50.0347 247.866 47.7307 249.189 45.768C250.511 43.8053 252.367 42.312 254.757 41.288C257.146 40.2213 259.877 39.688 262.949 39.688C267.557 39.688 271.29 40.8187 274.149 43.08C277.05 45.2987 278.65 48.4133 278.949 52.424H269.093C269.007 50.888 268.346 49.6293 267.109 48.648C265.914 47.624 264.314 47.112 262.309 47.112C260.559 47.112 259.151 47.56 258.085 48.456C257.061 49.352 256.549 50.6533 256.549 52.36C256.549 53.5547 256.933 54.5573 257.701 55.368C258.511 56.136 259.493 56.776 260.645 57.288C261.839 57.7573 263.503 58.312 265.637 58.952C268.538 59.8053 270.906 60.6587 272.741 61.512C274.575 62.3653 276.154 63.6453 277.477 65.352C278.799 67.0587 279.461 69.2987 279.461 72.072C279.461 74.4613 278.842 76.68 277.604 78.728C276.367 80.776 274.554 82.4187 272.165 83.656C269.775 84.8507 266.938 85.448 263.653 85.448Z" fill="white"/>
<path d="M431.128 40.328L418.648 85H408.088L399.704 53.192L390.936 85L380.44 85.064L368.408 40.328H378.008L385.88 75.016L394.968 40.328H404.952L413.528 74.824L421.464 40.328H431.128ZM474.035 40.328V85H465.075V65.992H445.939V85H436.979V40.328H445.939V58.696H465.075V40.328H474.035ZM510.246 76.488H492.454L489.51 85H480.102L496.166 40.264H506.598L522.662 85H513.19L510.246 76.488ZM507.814 69.32L501.35 50.632L494.885 69.32H507.814ZM559.066 40.328V47.56H547.162V85H538.202V47.56H526.298V40.328H559.066Z" fill="white"/>
<path d="M313.576 74.224C311.485 74.224 309.565 73.7333 307.816 72.752C306.067 71.7707 304.68 70.416 303.656 68.688C302.632 66.9387 302.12 64.9653 302.12 62.768C302.12 60.592 302.632 58.64 303.656 56.912C304.68 55.1627 306.067 53.7973 307.816 52.816C309.565 51.8347 311.485 51.344 313.576 51.344C315.688 51.344 317.608 51.8347 319.336 52.816C321.085 53.7973 322.461 55.1627 323.464 56.912C324.488 58.64 325 60.592 325 62.768C325 64.9653 324.488 66.9387 323.464 68.688C322.461 70.416 321.085 71.7707 319.336 72.752C317.587 73.7333 315.667 74.224 313.576 74.224ZM313.576 70.224C314.92 70.224 316.104 69.9253 317.128 69.328C318.152 68.7093 318.952 67.8347 319.528 66.704C320.104 65.5733 320.392 64.2613 320.392 62.768C320.392 61.2747 320.104 59.9733 319.528 58.864C318.952 57.7333 318.152 56.8693 317.128 56.272C316.104 55.6747 314.92 55.376 313.576 55.376C312.232 55.376 311.037 55.6747 309.992 56.272C308.968 56.8693 308.168 57.7333 307.592 58.864C307.016 59.9733 306.728 61.2747 306.728 62.768C306.728 64.2613 307.016 65.5733 307.592 66.704C308.168 67.8347 308.968 68.7093 309.992 69.328C311.037 69.9253 312.232 70.224 313.576 70.224ZM347.437 74H342.957L332.813 58.672V74H328.333V51.632H332.813L342.957 66.992V51.632H347.437V74Z" fill="white"/>
</svg>
