<svg width="52" height="52" viewBox="0 0 52 52" fill="none" xmlns="http://www.w3.org/2000/svg">
<rect width="52" height="52" fill="url(#paint0_linear_70_637)"/>
<path d="M12.4089 31.5228C11.8345 31.6277 11.2501 31.6592 10.6455 31.743L8.80141 26.1222V31.9843C8.22706 32.0472 7.70308 32.131 7.15894 32.2149V21.4766H8.69064L10.7865 27.5694V21.4766H12.4089V31.5228ZM15.5831 25.4091C16.2079 25.4091 17.1651 25.3776 17.7395 25.3776V27.0555C17.024 27.0555 16.1877 27.0555 15.5831 27.0869V29.5828C16.5303 29.5199 17.4775 29.4359 18.4348 29.4045V31.0193L13.9708 31.3864V21.4766H18.4348V23.1545H15.5831V25.4091V25.4091ZM24.4304 23.1545H22.7577V30.8727C22.2135 30.8727 21.6694 30.8727 21.1455 30.8936V23.1545H19.4728V21.4766H24.4305L24.4304 23.1545V23.1545ZM27.0503 25.2938H29.2571V26.9716H27.0503V30.7783H25.4682V21.4766H29.9726V23.1545H27.0503V25.2938V25.2938ZM32.5925 29.3101C33.5095 29.331 34.4365 29.4046 35.3334 29.4569V31.1138C33.8924 31.0194 32.4515 30.9251 30.9803 30.8936V21.4766H32.5925V29.3101ZM36.6937 31.2292C37.2076 31.2607 37.7518 31.2922 38.2758 31.355V21.4766H36.6937V31.2292V31.2292ZM45.3396 21.4766L43.294 26.5836L45.3396 32.2149C44.7349 32.131 44.1303 32.0157 43.5257 31.9108L42.3669 28.8068L41.1881 31.6592C40.6035 31.5542 40.0392 31.5228 39.4549 31.4389L41.5307 26.5207L39.6563 21.4766H41.3895L42.4475 24.2975L43.5762 21.4766H45.3396V21.4766Z" fill="white"/>
<defs>
<linearGradient id="paint0_linear_70_637" x1="26" y1="0" x2="26" y2="52" gradientUnits="userSpaceOnUse">
<stop stop-color="#E50914"/>
<stop offset="1" stop-color="#E50914" stop-opacity="0.85"/>
</linearGradient>
</defs>
</svg>
