<svg width="52" height="52" viewBox="0 0 52 52" fill="none" xmlns="http://www.w3.org/2000/svg">
<rect width="52" height="52" fill="url(#paint0_linear_10_39)"/>
<path d="M40.4904 31.7449C40.0391 31.1643 37.5056 31.4694 36.3678 31.6058C36.0225 31.6476 35.9701 31.3452 36.2804 31.1251C38.3008 29.6993 41.6108 30.1125 41.9963 30.5891C42.3832 31.0711 41.8942 34.4061 40.0015 35.9993C39.71 36.2424 39.4332 36.1128 39.5622 35.7901C39.988 34.7207 40.9418 32.3254 40.4891 31.7449M39.0208 33.4299C35.4919 36.0493 30.3738 37.44 25.9677 37.44C19.7924 37.44 14.2311 35.1447 10.0224 31.3263C9.69197 31.0266 9.9875 30.6174 10.3851 30.8497C14.9256 33.5055 20.5393 35.1042 26.3385 35.1042C30.5198 35.0836 34.6558 34.2329 38.509 32.6009C39.1055 32.347 39.6052 32.9965 39.0208 33.4299ZM39.6683 26.6276C38.646 26.6276 37.8602 26.3454 37.3108 25.7824C36.7614 25.218 36.4873 24.4092 36.4873 23.3561C36.4873 22.2773 36.7681 21.432 37.3296 20.8177C37.8911 20.2047 38.6702 19.8969 39.6683 19.8969C40.4367 19.8969 41.0372 20.0832 41.4697 20.4572C41.9036 20.8298 42.1199 21.3281 42.1199 21.9492C42.1199 22.5716 41.8861 23.0428 41.4214 23.3615C40.9539 23.6815 40.2661 23.8408 39.3593 23.8408C38.8892 23.8408 38.4808 23.7949 38.1342 23.7044C38.1839 24.2594 38.3505 24.6577 38.6353 24.898C38.9201 25.1383 39.3513 25.2599 39.9289 25.2599C40.16 25.2599 40.3857 25.245 40.6033 25.2153C40.9354 25.1646 41.2643 25.0938 41.5879 25.0033C41.6084 24.9999 41.629 24.9981 41.6497 24.9979C41.7894 24.9979 41.8593 25.0924 41.8593 25.2842V25.8566C41.8593 25.989 41.8418 26.0821 41.8055 26.1361C41.7483 26.204 41.6727 26.2537 41.5879 26.2793C40.9749 26.5135 40.3241 26.6316 39.6683 26.6276M39.2599 22.7215C39.6817 22.7215 39.9867 22.6567 40.1761 22.5284C40.3668 22.4001 40.4609 22.203 40.4609 21.937C40.4609 21.4145 40.1519 21.1539 39.534 21.1539C38.7414 21.1539 38.2833 21.6427 38.1584 22.6216C38.4889 22.6891 38.8569 22.7215 39.2599 22.7215M26.0416 26.4413C25.9341 26.4413 25.8549 26.417 25.8052 26.367C25.7568 26.3171 25.7313 26.2374 25.7313 26.1307V20.3951C25.7313 20.279 25.7568 20.198 25.8052 20.152C25.8549 20.1061 25.9341 20.0845 26.0416 20.0845H26.9322C27.1216 20.0845 27.2372 20.175 27.2788 20.3573L27.3782 20.6935C27.8148 20.4032 28.2097 20.198 28.5603 20.0778C28.9096 19.9563 29.2723 19.8969 29.6431 19.8969C30.3859 19.8969 30.9098 20.1628 31.2148 20.6935C31.5825 20.4382 31.9823 20.233 32.4036 20.0832C32.7744 19.959 33.1586 19.8969 33.5548 19.8969C34.1325 19.8969 34.5798 20.0589 34.8982 20.3829C35.2152 20.7056 35.3737 21.1579 35.3737 21.7385V26.1307C35.3737 26.2387 35.3509 26.3171 35.3065 26.367C35.2609 26.417 35.1803 26.4413 35.0647 26.4413H33.8759C33.7684 26.4413 33.6905 26.417 33.6408 26.367C33.5911 26.3171 33.5669 26.2374 33.5669 26.1307V22.1368C33.5669 21.5725 33.3144 21.2903 32.812 21.2903C32.366 21.2903 31.916 21.3983 31.4619 21.6143V26.1307C31.4619 26.2387 31.4391 26.3171 31.3948 26.367C31.3491 26.417 31.2685 26.4413 31.153 26.4413H29.9655C29.858 26.4413 29.7787 26.417 29.729 26.367C29.6807 26.3171 29.6552 26.2374 29.6552 26.1307V22.1368C29.6552 21.5725 29.404 21.2903 28.9002 21.2903C28.4381 21.2903 27.9841 21.4023 27.5394 21.6265V26.1307C27.5394 26.2387 27.5166 26.3171 27.4709 26.367C27.4252 26.417 27.3446 26.4413 27.2291 26.4413H26.0416ZM23.2958 19.1002C22.9815 19.1002 22.7316 19.0138 22.5409 18.8397C22.3501 18.6655 22.2561 18.4292 22.2561 18.1308C22.2561 17.8324 22.3501 17.5948 22.5409 17.4206C22.7303 17.2464 22.9815 17.16 23.2958 17.16C23.6088 17.16 23.86 17.2464 24.0508 17.4206C24.1466 17.5112 24.2217 17.6216 24.2709 17.7442C24.32 17.8669 24.3421 17.9988 24.3356 18.1308C24.3356 18.4278 24.2415 18.6655 24.0508 18.8397C23.8614 19.0138 23.6088 19.1002 23.2958 19.1002ZM22.7007 26.4413C22.5933 26.4413 22.5154 26.4156 22.4657 26.367C22.416 26.3171 22.3918 26.2374 22.3918 26.1294V20.3951C22.3918 20.279 22.416 20.198 22.4657 20.152C22.5154 20.1061 22.5946 20.0845 22.7007 20.0845H23.8896C24.0051 20.0845 24.0857 20.1061 24.1314 20.152C24.1771 20.198 24.1986 20.279 24.1986 20.3951V26.1294C24.1986 26.2374 24.1757 26.3171 24.1314 26.367C24.0857 26.4156 24.0051 26.4413 23.8896 26.4413H22.7007ZM17.756 26.4413C17.6485 26.4413 17.5692 26.417 17.5195 26.367C17.4712 26.3171 17.4457 26.2374 17.4457 26.1307V20.3951C17.4457 20.279 17.4712 20.198 17.5195 20.152C17.5692 20.1061 17.6485 20.0845 17.756 20.0845H18.6466C18.836 20.0845 18.9515 20.175 18.9932 20.3573L19.1544 21.0283C19.4835 20.6638 19.7951 20.4045 20.088 20.252C20.3822 20.098 20.6925 20.0224 21.0229 20.0224H21.1976C21.3117 20.0224 21.395 20.044 21.4434 20.0899C21.4931 20.1358 21.5186 20.2169 21.5186 20.333V21.3767C21.5186 21.4847 21.4958 21.5644 21.4501 21.6143C21.4044 21.6629 21.3238 21.6886 21.2083 21.6886C21.1338 21.6873 21.0594 21.6828 20.9853 21.6751C20.87 21.666 20.7544 21.6619 20.6387 21.6629C20.4507 21.6629 20.2183 21.6899 19.9456 21.7439C19.6742 21.7979 19.4432 21.8668 19.2538 21.9492V26.1307C19.2538 26.2387 19.2296 26.3171 19.1853 26.367C19.1396 26.417 19.059 26.4413 18.9435 26.4413H17.756ZM10.3421 29.004C10.2347 29.004 10.1568 28.981 10.1071 28.9364C10.0574 28.8905 10.0332 28.8082 10.0332 28.6934V20.3951C10.0332 20.279 10.0574 20.198 10.1071 20.152C10.1568 20.1061 10.2347 20.0845 10.3421 20.0845H11.2341C11.4222 20.0845 11.539 20.175 11.5807 20.3573L11.6667 20.6813C11.9255 20.4332 12.2304 20.2387 12.564 20.1088C12.904 19.9698 13.2675 19.8978 13.6346 19.8969C14.4353 19.8969 15.068 20.1912 15.5341 20.7799C16.0016 21.3699 16.234 22.1652 16.234 23.1697C16.234 23.8583 16.1184 24.4592 15.8874 24.9736C15.6563 25.4867 15.3433 25.8836 14.9471 26.1618C14.5476 26.4405 14.0711 26.5859 13.5849 26.5776C13.2464 26.5776 12.9254 26.5236 12.6191 26.4156C12.3331 26.3186 12.0685 26.1668 11.84 25.9687V28.6934C11.84 28.8082 11.8171 28.8905 11.7728 28.9364C11.7271 28.981 11.6452 29.004 11.531 29.004H10.3421ZM13.053 25.2099C13.5151 25.2099 13.8549 25.0519 14.0739 24.7373C14.2929 24.4214 14.403 23.9232 14.403 23.244C14.403 22.5554 14.2956 22.0531 14.0806 21.7385C13.8657 21.4226 13.5231 21.266 13.053 21.266C12.6231 21.266 12.2201 21.378 11.84 21.6008V24.8737C12.2026 25.0978 12.607 25.2099 13.053 25.2099V25.2099Z" fill="white"/>
<defs>
<linearGradient id="paint0_linear_10_39" x1="26" y1="0" x2="26" y2="52" gradientUnits="userSpaceOnUse">
<stop stop-color="#0096D6"/>
<stop offset="1" stop-color="#0096D6" stop-opacity="0.85"/>
</linearGradient>
</defs>
</svg>
