<svg viewBox="0 0 716 145" fill="none" xmlns="http://www.w3.org/2000/svg">
<path d="M209.128 50.328L196.648 95H186.088L177.704 63.192L168.936 95L158.44 95.064L146.408 50.328H156.008L163.88 85.016L172.968 50.328H182.952L191.528 84.824L199.464 50.328H209.128Z" fill="white"/>
<path d="M252.034 50.328V95H243.074V75.992H223.938V95H214.978V50.328H223.938V68.696H243.074V50.328H252.034Z" fill="white"/>
<path d="M288.245 86.488H270.453L267.509 95H258.101L274.165 50.264H284.597L300.661 95H291.189L288.245 86.488ZM285.813 79.32L279.349 60.632L272.885 79.32H285.813Z" fill="white"/>
<path d="M337.066 50.328V57.56H325.162V95H316.202V57.56H304.298V50.328H337.066Z" fill="white"/>
<path d="M345.395 50.328H354.803L347.891 66.456H341.747L345.395 50.328Z" fill="white"/>
<path d="M376.652 95.448C373.538 95.448 370.722 94.9147 368.204 93.848C365.73 92.7813 363.767 91.2453 362.316 89.24C360.866 87.2347 360.119 84.8667 360.076 82.136H369.676C369.804 83.9707 370.444 85.4213 371.596 86.488C372.791 87.5547 374.412 88.088 376.46 88.088C378.551 88.088 380.194 87.5973 381.388 86.616C382.583 85.592 383.18 84.2693 383.18 82.648C383.18 81.3253 382.775 80.2373 381.964 79.384C381.154 78.5307 380.13 77.8693 378.892 77.4C377.698 76.888 376.034 76.3333 373.9 75.736C370.999 74.8827 368.631 74.0507 366.796 73.24C365.004 72.3867 363.447 71.128 362.124 69.464C360.844 67.7573 360.204 65.496 360.204 62.68C360.204 60.0347 360.866 57.7307 362.188 55.768C363.511 53.8053 365.367 52.312 367.756 51.288C370.146 50.2213 372.876 49.688 375.948 49.688C380.556 49.688 384.29 50.8187 387.148 53.08C390.05 55.2987 391.65 58.4133 391.948 62.424H382.092C382.007 60.888 381.346 59.6293 380.108 58.648C378.914 57.624 377.314 57.112 375.308 57.112C373.559 57.112 372.151 57.56 371.084 58.456C370.06 59.352 369.548 60.6533 369.548 62.36C369.548 63.5547 369.932 64.5573 370.7 65.368C371.511 66.136 372.492 66.776 373.644 67.288C374.839 67.7573 376.503 68.312 378.636 68.952C381.538 69.8053 383.906 70.6587 385.74 71.512C387.575 72.3653 389.154 73.6453 390.476 75.352C391.799 77.0587 392.46 79.2987 392.46 82.072C392.46 84.4613 391.842 86.68 390.604 88.728C389.367 90.776 387.554 92.4187 385.164 93.656C382.775 94.8507 379.938 95.448 376.652 95.448Z" fill="white"/>
<path d="M544.128 50.328L531.648 95H521.088L512.704 63.192L503.936 95L493.44 95.064L481.408 50.328H491.008L498.88 85.016L507.968 50.328H517.952L526.528 84.824L534.464 50.328H544.128ZM587.035 50.328V95H578.075V75.992H558.939V95H549.979V50.328H558.939V68.696H578.075V50.328H587.035ZM623.246 86.488H605.454L602.51 95H593.102L609.166 50.264H619.598L635.662 95H626.19L623.246 86.488ZM620.814 79.32L614.35 60.632L607.885 79.32H620.814ZM672.066 50.328V57.56H660.162V95H651.202V57.56H639.298V50.328H672.066Z" fill="white"/>
<path d="M426.576 84.224C424.485 84.224 422.565 83.7333 420.816 82.752C419.067 81.7707 417.68 80.416 416.656 78.688C415.632 76.9387 415.12 74.9653 415.12 72.768C415.12 70.592 415.632 68.64 416.656 66.912C417.68 65.1627 419.067 63.7973 420.816 62.816C422.565 61.8347 424.485 61.344 426.576 61.344C428.688 61.344 430.608 61.8347 432.336 62.816C434.085 63.7973 435.461 65.1627 436.464 66.912C437.488 68.64 438 70.592 438 72.768C438 74.9653 437.488 76.9387 436.464 78.688C435.461 80.416 434.085 81.7707 432.336 82.752C430.587 83.7333 428.667 84.224 426.576 84.224ZM426.576 80.224C427.92 80.224 429.104 79.9253 430.128 79.328C431.152 78.7093 431.952 77.8347 432.528 76.704C433.104 75.5733 433.392 74.2613 433.392 72.768C433.392 71.2747 433.104 69.9733 432.528 68.864C431.952 67.7333 431.152 66.8693 430.128 66.272C429.104 65.6747 427.92 65.376 426.576 65.376C425.232 65.376 424.037 65.6747 422.992 66.272C421.968 66.8693 421.168 67.7333 420.592 68.864C420.016 69.9733 419.728 71.2747 419.728 72.768C419.728 74.2613 420.016 75.5733 420.592 76.704C421.168 77.8347 421.968 78.7093 422.992 79.328C424.037 79.9253 425.232 80.224 426.576 80.224ZM460.437 84H455.957L445.813 68.672V84H441.333V61.632H445.813L455.957 76.992V61.632H460.437V84Z" fill="white"/>
<rect width="122.908" height="74.8543" transform="matrix(0.965885 -0.25897 0.258668 0.965966 3.92206 72.6933)" fill="#252525"/>
<rect width="109.104" height="2.22781" transform="matrix(0.965885 -0.25897 0.258668 0.965966 14.1197 84.9513)" fill="#D9D9D9"/>
<rect width="109.104" height="2.22781" transform="matrix(0.965885 -0.25897 0.258668 0.965966 20.0552 107.117)" fill="#D9D9D9"/>
<rect width="66.3528" height="2.22781" transform="matrix(0.965885 -0.25897 0.258668 0.965966 22.3026 115.51)" fill="#D9D9D9"/>
<rect width="109.104" height="2.22781" transform="matrix(0.965885 -0.25897 0.258668 0.965966 24.6077 124.117)" fill="#D9D9D9"/>
<rect width="109.104" height="2.22781" transform="matrix(0.965885 -0.25897 0.258668 0.965966 26.9127 132.725)" fill="#D9D9D9"/>
<rect width="2.00394" height="20.7186" transform="matrix(0.965885 -0.25897 0.258668 0.965966 44.5899 79.0883)" fill="#D9D9D9"/>
<rect width="2.00394" height="16.4858" transform="matrix(0.965885 -0.25897 0.258669 0.965966 84.4325 91.0094)" fill="#D9D9D9"/>
<rect width="2.00394" height="20.7186" transform="matrix(0.965885 -0.25897 0.258669 0.965966 84.8069 68.3054)" fill="#D9D9D9"/>
<path d="M20.2948 79.6053L27.8518 66.508L42.0461 62.7023L34.4891 75.7996L20.2948 79.6053Z" fill="white"/>
<path d="M46.1025 72.6858L53.6595 59.5885L67.8538 55.7828L60.2967 68.8801L46.1025 72.6858Z" fill="white"/>
<path d="M71.9103 65.7663L79.4673 52.669L93.6615 48.8633L86.1045 61.9606L71.9103 65.7663Z" fill="white"/>
<path d="M97.5029 58.9045L105.06 45.8072L119.254 42.0015L111.697 55.0988L97.5029 58.9045Z" fill="white"/>
<rect width="122.923" height="10.915" transform="matrix(0.86589 -0.500234 0.499766 0.86616 0 61.49)" fill="#252525"/>
<path d="M12.3406 54.3608L26.9396 58.275L39.6658 50.9229L25.0668 47.0087L12.3406 54.3608Z" fill="white"/>
<path d="M35.4791 40.9934L50.0782 44.9076L62.8044 37.5555L48.2053 33.6413L35.4791 40.9934Z" fill="white"/>
<path d="M58.6177 27.626L73.2168 31.5402L85.943 24.1881L71.3439 20.2739L58.6177 27.626Z" fill="white"/>
<path d="M81.5635 14.37L96.1625 18.2842L108.889 10.9321L94.2897 7.0179L81.5635 14.37Z" fill="white"/>
<path d="M5.79813 79.6994L1.64383 64.1857C1.21526 62.5852 2.16515 60.9399 3.76549 60.5109L8.47894 59.2471C11.0415 58.56 13.7718 58.9195 16.0687 60.2465L27.362 66.7708C30.5146 68.5921 31.5944 72.6244 29.7743 75.779C28.608 77.8003 26.6865 79.2755 24.4328 79.8797L11.9209 83.2344C9.25368 83.9495 6.51242 82.3668 5.79813 79.6994Z" fill="#353432"/>
<ellipse cx="10.0404" cy="76.0891" rx="1.43434" ry="1.43564" fill="#D9D9D9"/>
<ellipse cx="25.8182" cy="73.2178" rx="1.43434" ry="1.43564" fill="#D9D9D9"/>
<ellipse cx="7.17171" cy="63.1683" rx="1.43434" ry="1.43564" fill="#D9D9D9"/>
</svg>
