<svg width="929" height="285" viewBox="0 0 929 285" fill="none" xmlns="http://www.w3.org/2000/svg">
<mask id="path-1-inside-1_3_217" fill="white">
<path fill-rule="evenodd" clip-rule="evenodd" d="M61.1331 26.3956C55.4675 25.3242 50.065 28.501 48.7332 33.5573C48.7059 33.5585 48.6785 33.5599 48.6512 33.5613C48.6705 31.6262 47.1358 29.855 44.9593 29.4434C42.5447 28.9868 40.2546 30.3763 39.8441 32.5469C39.8431 32.552 39.8422 32.557 39.8413 32.562C37.4575 32.2628 35.1797 33.0786 33.6292 34.6113C33.1173 34.3925 32.5722 34.2249 32 34.1167C27.9758 33.3557 24.1311 35.8182 23.4127 39.6169C22.6944 43.4155 25.3743 47.1119 29.3986 47.8729C31.9572 48.3568 34.4431 47.5376 36.0992 45.9005C36.6112 46.1192 37.1562 46.2868 37.7284 46.395C37.8311 46.4144 37.9336 46.4317 38.036 46.447C38.9684 50.7965 42.6548 54.4507 47.6005 55.3859C47.8248 55.4284 48.0488 55.4646 48.2723 55.4949C49.0338 64.4271 56.221 72.282 66.1872 74.1667C72.5126 75.3629 78.6739 73.9115 83.3466 70.6366C84.8443 71.3553 86.4677 71.8956 88.1903 72.2214C98.1168 74.0986 107.578 68.1417 109.323 58.9164C110.936 50.3833 105.383 42.0426 96.6847 39.3534C95.3309 34.2308 90.8086 29.9721 84.8218 28.8399C78.7942 27.7001 72.9914 30.0527 69.8754 34.3832C68.9616 30.4947 65.6075 27.2418 61.1331 26.3956Z"/>
</mask>
<path fill-rule="evenodd" clip-rule="evenodd" d="M61.1331 26.3956C55.4675 25.3242 50.065 28.501 48.7332 33.5573C48.7059 33.5585 48.6785 33.5599 48.6512 33.5613C48.6705 31.6262 47.1358 29.855 44.9593 29.4434C42.5447 28.9868 40.2546 30.3763 39.8441 32.5469C39.8431 32.552 39.8422 32.557 39.8413 32.562C37.4575 32.2628 35.1797 33.0786 33.6292 34.6113C33.1173 34.3925 32.5722 34.2249 32 34.1167C27.9758 33.3557 24.1311 35.8182 23.4127 39.6169C22.6944 43.4155 25.3743 47.1119 29.3986 47.8729C31.9572 48.3568 34.4431 47.5376 36.0992 45.9005C36.6112 46.1192 37.1562 46.2868 37.7284 46.395C37.8311 46.4144 37.9336 46.4317 38.036 46.447C38.9684 50.7965 42.6548 54.4507 47.6005 55.3859C47.8248 55.4284 48.0488 55.4646 48.2723 55.4949C49.0338 64.4271 56.221 72.282 66.1872 74.1667C72.5126 75.3629 78.6739 73.9115 83.3466 70.6366C84.8443 71.3553 86.4677 71.8956 88.1903 72.2214C98.1168 74.0986 107.578 68.1417 109.323 58.9164C110.936 50.3833 105.383 42.0426 96.6847 39.3534C95.3309 34.2308 90.8086 29.9721 84.8218 28.8399C78.7942 27.7001 72.9914 30.0527 69.8754 34.3832C68.9616 30.4947 65.6075 27.2418 61.1331 26.3956Z" fill="#FFF9C7"/>
<path d="M48.7332 33.5573L48.7787 34.5563L49.513 34.5229L49.7003 33.812L48.7332 33.5573ZM48.6512 33.5613L47.6513 33.5514L47.6407 34.6152L48.7032 34.56L48.6512 33.5613ZM39.8413 32.562L39.7167 33.5542L40.6531 33.6717L40.8246 32.7438L39.8413 32.562ZM33.6292 34.6113L33.2363 35.5308L33.8543 35.7949L34.3323 35.3224L33.6292 34.6113ZM36.0992 45.9005L36.4922 44.9809L35.8741 44.7168L35.3962 45.1893L36.0992 45.9005ZM38.036 46.447L39.0138 46.2374L38.8686 45.56L38.1834 45.4579L38.036 46.447ZM48.2723 55.4949L49.2686 55.4099L49.2006 54.6114L48.4064 54.5039L48.2723 55.4949ZM83.3466 70.6366L83.7793 69.735L83.2518 69.4819L82.7727 69.8177L83.3466 70.6366ZM96.6847 39.3534L95.7179 39.6089L95.8595 40.145L96.3893 40.3088L96.6847 39.3534ZM69.8754 34.3832L68.902 34.612L69.4044 36.7499L70.6872 34.9672L69.8754 34.3832ZM49.7003 33.812C50.8815 29.3273 55.7298 26.3915 60.9473 27.3782L61.3189 25.4131C55.2052 24.2569 49.2485 27.6748 47.7662 33.3026L49.7003 33.812ZM48.7032 34.56C48.7283 34.5586 48.7535 34.5574 48.7787 34.5563L48.6878 32.5583C48.6583 32.5597 48.6288 32.5611 48.5993 32.5627L48.7032 34.56ZM44.7735 30.426C46.542 30.7604 47.665 32.1666 47.6513 33.5514L49.6512 33.5713C49.6759 31.0857 47.7296 28.9495 45.1451 28.4608L44.7735 30.426ZM40.8266 32.7327C41.1164 31.2005 42.8005 30.0529 44.7735 30.426L45.1451 28.4608C42.2889 27.9207 39.3927 29.552 38.8615 32.3611L40.8266 32.7327ZM40.8246 32.7438C40.8254 32.7395 40.826 32.736 40.8266 32.7327L38.8615 32.3611C38.8602 32.3679 38.859 32.3744 38.8579 32.3802L40.8246 32.7438ZM34.3323 35.3224C35.6625 34.0074 37.6345 33.2929 39.7167 33.5542L39.9658 31.5698C37.2805 31.2327 34.6968 32.1497 32.9262 33.9001L34.3323 35.3224ZM31.8142 35.0993C32.315 35.194 32.7906 35.3404 33.2363 35.5308L34.0222 33.6917C33.444 33.4446 32.8295 33.2559 32.1859 33.1341L31.8142 35.0993ZM24.3953 39.8027C25.0011 36.5993 28.2784 34.4307 31.8142 35.0993L32.1859 33.1341C27.6731 32.2807 23.2611 35.0371 22.4302 39.431L24.3953 39.8027ZM29.5844 46.8903C26.0487 46.2217 23.7895 43.006 24.3953 39.8027L22.4302 39.431C21.5992 43.825 24.7 48.0021 29.2128 48.8555L29.5844 46.8903ZM35.3962 45.1893C33.9753 46.594 31.8221 47.3135 29.5844 46.8903L29.2128 48.8555C32.0922 49.4 34.911 48.4812 36.8023 46.6116L35.3962 45.1893ZM37.9142 45.4124C37.4134 45.3177 36.9378 45.1713 36.4922 44.9809L35.7063 46.82C36.2845 47.0671 36.899 47.2558 37.5426 47.3776L37.9142 45.4124ZM38.1834 45.4579C38.0938 45.4445 38.0041 45.4294 37.9142 45.4124L37.5426 47.3776C37.6581 47.3994 37.7735 47.4189 37.8887 47.4361L38.1834 45.4579ZM47.7863 54.4034C43.215 53.5389 39.8574 50.1727 39.0138 46.2374L37.0582 46.6566C38.0794 51.4203 42.0947 55.3625 47.4147 56.3685L47.7863 54.4034ZM48.4064 54.5039C48.2002 54.476 47.9935 54.4425 47.7863 54.4034L47.4147 56.3685C47.6562 56.4142 47.8974 56.4533 48.1381 56.4859L48.4064 54.5039ZM66.373 73.1841C56.8088 71.3755 49.9888 63.8566 49.2686 55.4099L47.2759 55.5798C48.0789 64.9976 55.6331 73.1886 66.0014 75.1493L66.373 73.1841ZM82.7727 69.8177C78.3229 72.9364 72.4359 74.3307 66.373 73.1841L66.0014 75.1493C72.5892 76.3951 79.0249 74.8866 83.9205 71.4555L82.7727 69.8177ZM88.3761 71.2388C86.7394 70.9293 85.1989 70.4163 83.7793 69.735L82.9139 71.5381C84.4896 72.2943 86.196 72.862 88.0045 73.204L88.3761 71.2388ZM108.34 58.7306C106.711 67.3467 97.829 73.0264 88.3761 71.2388L88.0045 73.204C98.4047 75.1707 108.446 68.9368 110.305 59.1022L108.34 58.7306ZM96.3893 40.3088C104.664 42.8669 109.848 50.7587 108.34 58.7306L110.305 59.1022C112.025 50.0078 106.102 41.2182 96.98 38.398L96.3893 40.3088ZM84.636 29.8225C90.2692 30.8878 94.4689 34.883 95.7179 39.6089L97.6515 39.0979C96.1928 33.5786 91.3481 29.0564 85.0076 27.8574L84.636 29.8225ZM70.6872 34.9672C73.5613 30.9729 78.9642 28.7499 84.636 29.8225L85.0076 27.8574C78.6242 26.6502 72.4216 29.1325 69.0637 33.7991L70.6872 34.9672ZM60.9473 27.3782C65.0564 28.1553 68.0838 31.1308 68.902 34.612L70.8489 34.1544C69.8393 29.8585 66.1586 26.3283 61.3189 25.4131L60.9473 27.3782Z" fill="black" fill-opacity="0.8" mask="url(#path-1-inside-1_3_217)"/>
<path d="M13.7562 166.024L23.4128 39.6169L110.863 56.1545L74.6764 177.545L13.7562 166.024Z" fill="white" stroke="#FF0000" stroke-opacity="0.8"/>
<path d="M38 42L16 166" stroke="#FF0000" stroke-width="2"/>
<path d="M57 46L35 170" stroke="#FF0000" stroke-width="2"/>
<path d="M76 50L54 174" stroke="#FF0000" stroke-width="2"/>
<path d="M94 53L72 177" stroke="#FF0000" stroke-width="2"/>
<path d="M89.8778 99.1039C87.2997 113.628 71.0049 123.176 53.1592 120.008C35.3134 116.841 23.3001 102.268 25.8782 87.7438C28.4563 73.2196 44.751 63.6718 62.5968 66.8394C80.4426 70.0071 92.4559 84.5797 89.8778 99.1039Z" fill="white" stroke="#FF0000" stroke-width="2"/>
<path d="M41.3811 87.4707C41.3855 86.79 41.3497 86.2055 41.2739 85.7172C41.1981 85.229 41.0707 84.8112 40.8918 84.464C40.7155 84.1013 40.489 83.8015 40.2121 83.5645C39.9225 83.3094 39.5699 83.0991 39.1542 82.9337L39.3444 82.3716C39.5598 82.5032 39.8253 82.667 40.1407 82.863C40.4588 83.0436 40.8244 83.2244 41.2375 83.4053C41.6686 83.5733 42.1434 83.7171 42.662 83.8366C43.1986 83.9433 43.7945 83.9808 44.4496 83.9491C44.3201 84.3392 44.1763 84.8141 44.0182 85.3737C43.8755 85.9359 43.7431 86.4839 43.621 87.0179C43.9535 86.5513 44.331 86.1001 44.7534 85.6645C45.1938 85.2161 45.6687 84.8449 46.1781 84.5508C46.7055 84.2439 47.2621 84.045 47.848 83.954C48.4493 83.8657 49.0798 83.9328 49.7394 84.1554C50.2475 84.3365 50.6847 84.6562 51.0508 85.1144C51.4196 85.5571 51.6994 86.1037 51.8904 86.7541C52.084 87.3891 52.1772 88.1021 52.17 88.8933C52.1629 89.6844 52.049 90.4972 51.8285 91.3314C51.59 92.1785 51.29 92.9676 50.9285 93.6988C50.567 94.4299 50.1377 95.0466 49.6407 95.5488C49.1616 96.0382 48.6097 96.3964 47.9849 96.6234C47.3781 96.8376 46.7115 96.8436 45.9851 96.6414C45.4999 96.5117 45.0573 96.3179 44.6573 96.06C44.2752 95.7893 43.9318 95.4776 43.627 95.1249C43.3249 94.7568 43.0678 94.3567 42.8557 93.9246C42.6436 93.4925 42.4726 93.0515 42.3427 92.6016C42.2749 93.0022 42.2057 93.458 42.135 93.969C42.0669 94.4646 42.004 94.9769 41.9461 95.5059C41.8908 96.0195 41.842 96.5421 41.7995 97.0737C41.7596 97.5899 41.734 98.0689 41.7226 98.5107C41.7109 99.0476 41.756 99.4831 41.8579 99.8173C41.9624 100.136 42.0928 100.396 42.2489 100.597C42.4077 100.782 42.5743 100.921 42.7488 101.014C42.9232 101.107 43.0758 101.188 43.2067 101.258L43.0399 101.681C42.5498 101.487 42.0377 101.329 41.5037 101.207C40.9851 101.088 40.4781 100.994 39.9825 100.926C39.4997 100.876 39.0438 100.854 38.6148 100.861C38.2012 100.87 37.862 100.908 37.5973 100.974L37.6837 100.323C37.9127 100.187 38.1236 100.065 38.3166 99.9546C38.5121 99.8292 38.695 99.6383 38.8652 99.3819C39.0508 99.128 39.2212 98.7766 39.3765 98.3274C39.5498 97.8655 39.7197 97.2366 39.8861 96.4407C40.219 94.849 40.5454 93.2957 40.8653 91.781C41.1877 90.2508 41.3597 88.8141 41.3811 87.4707ZM43.0206 89.7213C42.9168 90.1474 42.8885 90.6418 42.9359 91.2045C43.0012 91.7544 43.1386 92.3006 43.3478 92.8431C43.575 93.3729 43.8744 93.8514 44.2457 94.2788C44.6325 94.7088 45.0993 94.9938 45.646 95.1339C46.1158 95.261 46.5448 95.2544 46.933 95.1141C47.3213 94.9739 47.6673 94.7551 47.9712 94.4579C48.2905 94.1633 48.5714 93.8147 48.8139 93.4121C49.0564 93.0094 49.2604 92.6002 49.4258 92.1845C49.5939 91.7534 49.726 91.3479 49.822 90.9679C49.936 90.5752 50.0229 90.2492 50.0827 89.9899C50.1557 89.5585 50.1864 89.0963 50.1749 88.603C50.1659 88.0944 50.0888 87.6138 49.9435 87.1614C49.8137 86.7115 49.6105 86.3205 49.3339 85.9884C49.0728 85.659 48.7368 85.4436 48.3261 85.3424C47.7741 85.2331 47.2075 85.3035 46.6263 85.5538C46.0631 85.7912 45.5382 86.1302 45.0516 86.5708C44.565 87.0114 44.1386 87.5176 43.7723 88.0895C43.4087 88.646 43.1581 89.1899 43.0206 89.7213ZM56.8061 105.034C56.1591 104.925 55.4907 104.614 54.8011 104.101C54.1114 103.588 53.5096 102.884 52.9955 101.988C52.4995 101.08 52.1479 99.9748 51.9406 98.6719C51.7333 97.369 51.7886 95.8729 52.1063 94.1835C52.4006 92.6327 52.8791 91.3508 53.5419 90.3379C54.2227 89.3121 54.9761 88.5126 55.8021 87.9394C56.6282 87.3661 57.4614 86.9842 58.3019 86.7937C59.1578 86.6059 59.9092 86.5667 60.5563 86.6762C61.3728 86.8145 62.1208 87.1234 62.8003 87.6029C63.4951 88.0851 64.0766 88.7223 64.5446 89.5147C65.0153 90.2917 65.3417 91.2185 65.5239 92.2953C65.7241 93.3593 65.7364 94.5499 65.5609 95.8673C65.3619 97.3232 64.9539 98.6566 64.3369 99.8675C63.7224 101.063 62.9967 102.073 62.1598 102.898C61.3408 103.71 60.4556 104.305 59.5042 104.683C58.5502 105.076 57.6508 105.193 56.8061 105.034ZM54.0005 94.7894C53.9068 95.249 53.8272 95.7664 53.7614 96.3416C53.6984 96.9014 53.6712 97.4832 53.6799 98.0869C53.6886 98.6905 53.7371 99.293 53.8255 99.8943C53.9319 100.483 54.0936 101.025 54.3107 101.522C54.5277 102.018 54.8118 102.446 55.1627 102.807C55.5137 103.167 55.9562 103.409 56.4902 103.531C57.0088 103.65 57.538 103.613 58.078 103.419C58.6179 103.226 59.1376 102.917 59.637 102.495C60.1518 102.075 60.6348 101.562 61.0859 100.957C61.537 100.352 61.9381 99.7149 62.2891 99.0453C62.6428 98.3604 62.9336 97.6727 63.1614 96.9823C63.3918 96.2765 63.5451 95.6052 63.6213 94.9683C63.6742 94.3751 63.705 93.8653 63.7138 93.4389C63.7252 92.9971 63.7031 92.613 63.6474 92.2866C63.6005 92.5639 63.5214 92.8437 63.4102 93.126C63.3171 93.3955 63.1777 93.6571 62.9921 93.911C62.8065 94.1648 62.5695 94.3941 62.2813 94.5988C62.0085 94.8062 61.6729 94.9633 61.2744 95.0702C60.6755 95.2382 60.1269 95.2958 59.6287 95.2432C59.1331 95.1751 58.7071 95.0237 58.3507 94.7891C57.9942 94.5544 57.715 94.2377 57.5131 93.839C57.3292 93.4276 57.2508 92.9547 57.2779 92.4205C57.2895 91.8837 57.4063 91.428 57.6282 91.0535C57.8681 90.6663 58.1502 90.3575 58.4744 90.1271C58.8013 89.8814 59.1549 89.7115 59.5353 89.6174C59.9157 89.5233 60.278 89.4896 60.6222 89.5162C60.73 89.5344 60.8738 89.5746 61.0534 89.6367C61.2357 89.6834 61.4101 89.7763 61.5767 89.9155C61.7459 90.0392 61.8816 90.2207 61.9837 90.4598C62.0859 90.699 62.1133 91.0047 62.0661 91.3771C62.0163 91.7648 61.8755 92.0817 61.6437 92.3277C61.4299 92.5609 61.179 92.7324 60.891 92.8421C60.6184 92.9544 60.3409 93.0025 60.0584 92.9864C59.7939 92.9574 59.577 92.8811 59.4078 92.7573C59.2566 92.6208 59.1786 92.4729 59.1739 92.3136C59.1718 92.139 59.2133 91.9875 59.2984 91.8593C59.3861 91.7157 59.4994 91.6081 59.6383 91.5365C59.7926 91.4675 59.9441 91.4615 60.093 91.5184C60.3136 91.6192 60.4301 91.7736 60.4424 91.9817C60.4727 92.177 60.4505 92.3555 60.3755 92.5171C60.6967 92.4922 60.9475 92.3683 61.1279 92.1453C61.3236 91.9249 61.436 91.6824 61.465 91.4179C61.5093 91.156 61.4637 90.9106 61.3281 90.6816C61.2106 90.4398 60.9901 90.2916 60.6665 90.2368C60.0811 90.1377 59.5401 90.2442 59.0436 90.5563C58.5496 90.853 58.2349 91.3544 58.0995 92.0604C58.0604 92.2915 58.0418 92.5419 58.0436 92.8116C58.0455 93.0814 58.0975 93.3358 58.1997 93.5749C58.3172 93.8167 58.4952 94.0291 58.7336 94.2121C58.9746 94.3797 59.3211 94.4859 59.7731 94.5307C60.2097 94.5729 60.6054 94.529 60.9602 94.3989C61.3331 94.256 61.6508 94.0642 61.9134 93.8234C62.1941 93.5698 62.426 93.2763 62.6092 92.9428C62.7925 92.6094 62.9154 92.2578 62.978 91.888C63.1056 91.2282 63.1212 90.6683 63.0247 90.2082C62.9309 89.7327 62.7675 89.3406 62.5346 89.0317C62.3196 88.7101 62.0518 88.4667 61.7311 88.3014C61.4259 88.1388 61.1205 88.0237 60.815 87.9561C60.1397 87.826 59.4459 87.9462 58.7334 88.3168C58.0235 88.6721 57.3517 89.1764 56.7182 89.8298C56.0846 90.4832 55.5187 91.251 55.0207 92.1334C54.5407 93.003 54.2006 93.8883 54.0005 94.7894ZM68.9497 92.1385C68.954 91.4578 68.9183 90.8733 68.8425 90.385C68.7667 89.8968 68.6393 89.479 68.4604 89.1318C68.2841 88.7691 68.0575 88.4693 67.7807 88.2322C67.4911 87.9772 67.1384 87.7669 66.7227 87.6015L66.913 87.0394C67.1284 87.171 67.3939 87.3348 67.7093 87.5308C68.0274 87.7114 68.3929 87.8922 68.806 88.0731C69.2372 88.2411 69.712 88.3849 70.2306 88.5044C70.7672 88.6111 71.363 88.6486 72.0181 88.6169C71.8887 89.007 71.7449 89.4819 71.5868 90.0415C71.444 90.6036 71.3116 91.1517 71.1895 91.6857C71.5221 91.2191 71.8996 90.7679 72.322 90.3323C72.7624 89.8839 73.2373 89.5127 73.7466 89.2186C74.274 88.9117 74.8307 88.7128 75.4166 88.6218C76.0179 88.5335 76.6483 88.6006 77.3079 88.8232C77.8161 89.0043 78.2532 89.324 78.6194 89.7821C78.9881 90.2249 79.268 90.7715 79.459 91.4219C79.6526 92.0569 79.7458 92.7699 79.7386 93.5611C79.7314 94.3522 79.6176 95.165 79.3971 95.9992C79.1586 96.8463 78.8586 97.6354 78.4971 98.3666C78.1356 99.0977 77.7063 99.7144 77.2092 100.217C76.7302 100.706 76.1783 101.064 75.5535 101.291C74.9467 101.505 74.2801 101.511 73.5537 101.309C73.0685 101.179 72.6259 100.986 72.2258 100.728C71.8438 100.457 71.5004 100.145 71.1956 99.7927C70.8934 99.4246 70.6363 99.0245 70.4242 98.5924C70.2121 98.1603 70.0412 97.7193 69.9113 97.2694C69.8435 97.67 69.7742 98.1258 69.7036 98.6368C69.6355 99.1323 69.5725 99.6446 69.5147 100.174C69.4594 100.687 69.4105 101.21 69.3681 101.741C69.3282 102.258 69.3026 102.737 69.2912 103.179C69.2795 103.715 69.3246 104.151 69.4265 104.485C69.531 104.804 69.6613 105.064 69.8175 105.264C69.9763 105.45 70.1429 105.589 70.3173 105.682C70.4918 105.775 70.6444 105.856 70.7752 105.926L70.6085 106.349C70.1183 106.155 69.6063 105.997 69.0723 105.875C68.5537 105.756 68.0466 105.662 67.551 105.594C67.0682 105.544 66.6123 105.522 66.1833 105.529C65.7697 105.538 65.4306 105.575 65.1658 105.642L65.2523 104.991C65.4812 104.855 65.6922 104.732 65.8851 104.622C66.0807 104.497 66.2636 104.306 66.4337 104.05C66.6194 103.796 66.7898 103.444 66.9451 102.995C67.1184 102.533 67.2882 101.904 67.4547 101.109C67.7876 99.5167 68.114 97.9635 68.4338 96.4488C68.7563 94.9186 68.9283 93.4819 68.9497 92.1385ZM70.5892 94.3891C70.4853 94.8152 70.4571 95.3096 70.5044 95.8723C70.5698 96.4222 70.7071 96.9684 70.9164 97.5109C71.1436 98.0407 71.4429 98.5192 71.8143 98.9466C72.2011 99.3766 72.6678 99.6616 73.2146 99.8017C73.6844 99.9288 74.1134 99.9222 74.5016 99.7819C74.8898 99.6416 75.2359 99.4229 75.5398 99.1257C75.8591 98.8311 76.14 98.4825 76.3825 98.0798C76.625 97.6772 76.8289 97.268 76.9944 96.8523C77.1625 96.4212 77.2945 96.0156 77.3906 95.6357C77.5046 95.243 77.5915 94.917 77.6512 94.6577C77.7243 94.2263 77.755 93.764 77.7434 93.2708C77.7345 92.7622 77.6574 92.2816 77.5121 91.8292C77.3823 91.3793 77.1791 90.9883 76.9025 90.6562C76.6413 90.3268 76.3054 90.1114 75.8946 90.0102C75.3426 89.9009 74.776 89.9713 74.1949 90.2216C73.6317 90.459 73.1068 90.798 72.6202 91.2386C72.1336 91.6792 71.7071 92.1854 71.3409 92.7573C70.9773 93.3137 70.7267 93.8577 70.5892 94.3891Z" fill="#FF0000"/>
<mask id="path-10-inside-2_3_217" fill="white">
<path fill-rule="evenodd" clip-rule="evenodd" d="M298.222 119.298C292.538 120.27 288.583 125.132 289.099 130.335C289.074 130.346 289.049 130.357 289.024 130.367C288.367 128.547 286.31 127.422 284.127 127.796C281.705 128.21 280.043 130.311 280.416 132.489C280.417 132.494 280.417 132.499 280.418 132.504C278.08 133.055 276.23 134.614 275.311 136.591C274.755 136.565 274.186 136.598 273.612 136.696C269.575 137.387 266.831 141.036 267.483 144.846C268.134 148.657 271.935 151.186 275.972 150.496C278.539 150.057 280.583 148.422 281.564 146.31C282.12 146.336 282.689 146.303 283.263 146.205C283.366 146.187 283.469 146.168 283.57 146.147C285.961 149.898 290.69 152.036 295.652 151.188C295.877 151.149 296.099 151.105 296.319 151.056C300.149 159.161 309.624 164.016 319.622 162.306C325.967 161.22 331.235 157.711 334.472 153.012C336.126 153.163 337.836 153.103 339.564 152.807C349.522 151.104 356.312 142.221 354.729 132.967C353.264 124.407 345.15 118.527 336.06 119.041C333.005 114.712 327.281 112.299 321.275 113.326C315.229 114.36 310.611 118.589 309.201 123.734C306.989 120.409 302.71 118.53 298.222 119.298Z"/>
</mask>
<path fill-rule="evenodd" clip-rule="evenodd" d="M298.222 119.298C292.538 120.27 288.583 125.132 289.099 130.335C289.074 130.346 289.049 130.357 289.024 130.367C288.367 128.547 286.31 127.422 284.127 127.796C281.705 128.21 280.043 130.311 280.416 132.489C280.417 132.494 280.417 132.499 280.418 132.504C278.08 133.055 276.23 134.614 275.311 136.591C274.755 136.565 274.186 136.598 273.612 136.696C269.575 137.387 266.831 141.036 267.483 144.846C268.134 148.657 271.935 151.186 275.972 150.496C278.539 150.057 280.583 148.422 281.564 146.31C282.12 146.336 282.689 146.303 283.263 146.205C283.366 146.187 283.469 146.168 283.57 146.147C285.961 149.898 290.69 152.036 295.652 151.188C295.877 151.149 296.099 151.105 296.319 151.056C300.149 159.161 309.624 164.016 319.622 162.306C325.967 161.22 331.235 157.711 334.472 153.012C336.126 153.163 337.836 153.103 339.564 152.807C349.522 151.104 356.312 142.221 354.729 132.967C353.264 124.407 345.15 118.527 336.06 119.041C333.005 114.712 327.281 112.299 321.275 113.326C315.229 114.36 310.611 118.589 309.201 123.734C306.989 120.409 302.71 118.53 298.222 119.298Z" fill="#FFF9C7"/>
<path d="M289.099 130.335L289.49 131.255L290.167 130.968L290.094 130.236L289.099 130.335ZM289.024 130.367L288.083 130.707L288.444 131.708L289.421 131.285L289.024 130.367ZM280.418 132.504L280.648 133.477L281.566 133.261L281.403 132.331L280.418 132.504ZM275.311 136.591L275.264 137.59L275.935 137.622L276.218 137.013L275.311 136.591ZM281.564 146.31L281.611 145.311L280.94 145.279L280.657 145.889L281.564 146.31ZM283.57 146.147L284.413 145.609L284.041 145.025L283.363 145.168L283.57 146.147ZM296.319 151.056L297.223 150.628L296.881 149.904L296.099 150.08L296.319 151.056ZM334.472 153.012L334.563 152.016L333.981 151.963L333.649 152.445L334.472 153.012ZM336.06 119.041L335.243 119.618L335.563 120.071L336.117 120.039L336.06 119.041ZM309.201 123.734L308.369 124.288L309.585 126.117L310.166 123.999L309.201 123.734ZM290.094 130.236C289.637 125.621 293.157 121.179 298.391 120.284L298.053 118.312C291.92 119.361 287.53 124.642 288.104 130.434L290.094 130.236ZM289.421 131.285C289.444 131.275 289.467 131.265 289.49 131.255L288.708 129.415C288.681 129.426 288.654 129.438 288.627 129.45L289.421 131.285ZM284.296 128.782C286.07 128.478 287.613 129.404 288.083 130.707L289.964 130.028C289.12 127.69 286.551 126.367 283.958 126.81L284.296 128.782ZM281.401 132.32C281.138 130.783 282.317 129.12 284.296 128.782L283.958 126.81C281.093 127.3 278.948 129.839 279.43 132.657L281.401 132.32ZM281.403 132.331C281.403 132.327 281.402 132.323 281.401 132.32L279.43 132.657C279.431 132.664 279.432 132.671 279.433 132.677L281.403 132.331ZM276.218 137.013C277.006 135.316 278.605 133.959 280.648 133.477L280.189 131.531C277.555 132.151 275.453 133.912 274.404 136.17L276.218 137.013ZM273.781 137.682C274.283 137.596 274.78 137.567 275.264 137.59L275.359 135.592C274.731 135.563 274.089 135.6 273.443 135.71L273.781 137.682ZM268.468 144.678C267.919 141.464 270.234 138.289 273.781 137.682L273.443 135.71C268.916 136.485 265.743 140.607 266.497 145.015L268.468 144.678ZM275.804 149.51C272.257 150.117 269.018 147.891 268.468 144.678L266.497 145.015C267.251 149.423 271.614 152.256 276.141 151.481L275.804 149.51ZM280.657 145.889C279.815 147.701 278.048 149.126 275.804 149.51L276.141 151.481C279.029 150.987 281.351 149.143 282.471 146.731L280.657 145.889ZM283.095 145.219C282.592 145.305 282.096 145.334 281.611 145.311L281.516 147.309C282.145 147.339 282.786 147.301 283.432 147.191L283.095 145.219ZM283.363 145.168C283.274 145.187 283.185 145.204 283.095 145.219L283.432 147.191C283.548 147.171 283.663 147.149 283.777 147.125L283.363 145.168ZM295.483 150.202C290.897 150.986 286.576 149.003 284.413 145.609L282.727 146.684C285.345 150.792 290.483 153.086 295.82 152.174L295.483 150.202ZM296.099 150.08C295.896 150.126 295.691 150.167 295.483 150.202L295.82 152.174C296.062 152.132 296.302 152.085 296.539 152.031L296.099 150.08ZM319.453 161.32C309.859 162.961 300.845 158.293 297.223 150.628L295.415 151.483C299.453 160.029 309.389 165.07 319.79 163.291L319.453 161.32ZM333.649 152.445C330.566 156.92 325.535 160.28 319.453 161.32L319.79 163.291C326.399 162.161 331.904 158.502 335.296 153.579L333.649 152.445ZM339.396 151.822C337.754 152.103 336.131 152.159 334.563 152.016L334.381 154.008C336.122 154.167 337.919 154.103 339.733 153.793L339.396 151.822ZM353.743 133.135C355.221 141.779 348.879 150.2 339.396 151.822L339.733 153.793C350.166 152.009 357.402 142.664 355.714 132.798L353.743 133.135ZM336.117 120.039C344.764 119.551 352.375 125.138 353.743 133.135L355.714 132.798C354.154 123.675 345.537 117.504 336.004 118.043L336.117 120.039ZM321.444 114.311C327.095 113.345 332.424 115.624 335.243 119.618L336.877 118.464C333.585 113.8 327.467 111.252 321.107 112.34L321.444 114.311ZM310.166 123.999C311.466 119.253 315.754 115.285 321.444 114.311L321.107 112.34C314.703 113.435 309.756 117.925 308.237 123.47L310.166 123.999ZM298.391 120.284C302.513 119.579 306.388 121.311 308.369 124.288L310.034 123.18C307.589 119.506 302.908 117.482 298.053 118.312L298.391 120.284Z" fill="black" fill-opacity="0.8" mask="url(#path-10-inside-2_3_217)"/>
<path d="M302.525 266.682L267.483 144.846L355.209 129.841L363.638 256.229L302.525 266.682Z" fill="white" stroke="#FF0000" stroke-opacity="0.8"/>
<path d="M281.985 141.991L304.62 265.877" stroke="#FF0000" stroke-width="2"/>
<path d="M301.187 139.113L323.822 262.998" stroke="#FF0000" stroke-width="2"/>
<path d="M320.389 136.234L343.024 260.12" stroke="#FF0000" stroke-width="2"/>
<path d="M338.305 132.767L360.939 256.653" stroke="#FF0000" stroke-width="2"/>
<path d="M350.523 177.413C353.173 191.924 341.232 206.556 323.402 209.812C305.573 213.069 289.231 203.602 286.581 189.09C283.93 174.579 295.871 159.947 313.701 156.691C331.531 153.435 347.873 162.902 350.523 177.413Z" fill="white" stroke="#FF0000" stroke-width="2"/>
<path d="M301.014 183.427C300.781 182.787 300.544 182.252 300.302 181.821C300.061 181.39 299.796 181.043 299.507 180.78C299.215 180.501 298.898 180.299 298.556 180.174C298.196 180.036 297.792 179.962 297.345 179.952L297.327 179.358C297.575 179.407 297.881 179.467 298.245 179.541C298.606 179.6 299.012 179.641 299.462 179.667C299.924 179.674 300.42 179.643 300.947 179.574C301.487 179.487 302.059 179.314 302.662 179.056C302.677 179.467 302.707 179.962 302.754 180.542C302.817 181.118 302.884 181.678 302.956 182.221C303.105 181.668 303.301 181.113 303.545 180.558C303.801 179.984 304.117 179.47 304.492 179.017C304.879 178.545 305.331 178.165 305.849 177.875C306.381 177.583 306.996 177.426 307.691 177.404C308.231 177.397 308.752 177.544 309.255 177.846C309.755 178.132 310.208 178.546 310.614 179.089C311.017 179.617 311.353 180.253 311.622 180.997C311.891 181.741 312.068 182.542 312.152 183.401C312.224 184.278 312.218 185.122 312.135 185.933C312.051 186.745 311.864 187.472 311.573 188.116C311.295 188.742 310.902 189.27 310.396 189.701C309.902 190.114 309.279 190.352 308.528 190.416C308.028 190.463 307.546 190.436 307.081 190.334C306.628 190.213 306.198 190.041 305.789 189.817C305.378 189.577 304.997 189.292 304.648 188.961C304.298 188.63 303.984 188.276 303.705 187.9C303.782 188.299 303.876 188.75 303.988 189.254C304.097 189.742 304.216 190.244 304.347 190.76C304.474 191.261 304.611 191.768 304.756 192.281C304.899 192.778 305.042 193.236 305.185 193.654C305.362 194.161 305.556 194.554 305.768 194.832C305.977 195.094 306.19 195.292 306.406 195.426C306.62 195.544 306.824 195.616 307.02 195.642C307.216 195.669 307.388 195.692 307.535 195.711L307.526 196.166C306.999 196.156 306.464 196.186 305.921 196.258C305.393 196.327 304.885 196.416 304.397 196.525C303.927 196.646 303.492 196.785 303.093 196.941C302.708 197.094 302.403 197.247 302.178 197.402L302.032 196.761C302.2 196.555 302.354 196.366 302.497 196.196C302.636 196.01 302.741 195.767 302.811 195.467C302.897 195.165 302.934 194.776 302.923 194.301C302.924 193.808 302.864 193.159 302.742 192.355C302.499 190.747 302.263 189.177 302.035 187.646C301.803 186.1 301.463 184.693 301.014 183.427ZM303.336 184.964C303.387 185.4 303.533 185.873 303.774 186.384C304.027 186.876 304.346 187.34 304.732 187.776C305.129 188.193 305.577 188.537 306.074 188.808C306.586 189.076 307.123 189.18 307.685 189.121C308.169 189.076 308.569 188.92 308.884 188.654C309.199 188.387 309.447 188.061 309.628 187.676C309.824 187.289 309.966 186.864 310.053 186.402C310.14 185.94 310.188 185.486 310.198 185.038C310.205 184.576 310.188 184.15 310.145 183.76C310.115 183.352 310.083 183.016 310.048 182.753C309.966 182.323 309.834 181.879 309.651 181.421C309.465 180.947 309.225 180.524 308.931 180.15C308.653 179.774 308.326 179.478 307.951 179.264C307.591 179.046 307.201 178.961 306.781 179.01C306.225 179.1 305.719 179.363 305.262 179.801C304.817 180.22 304.443 180.72 304.141 181.303C303.838 181.886 303.615 182.509 303.471 183.173C303.325 183.821 303.28 184.418 303.336 184.964ZM321.597 194.507C320.953 194.63 320.218 194.571 319.392 194.331C318.567 194.091 317.757 193.641 316.963 192.981C316.182 192.303 315.467 191.39 314.818 190.241C314.169 189.092 313.699 187.671 313.408 185.977C313.142 184.421 313.144 183.053 313.412 181.872C313.692 180.673 314.119 179.661 314.693 178.836C315.267 178.01 315.915 177.362 316.636 176.89C317.373 176.415 318.064 176.117 318.708 175.994C319.522 175.838 320.33 175.867 321.134 176.079C321.954 176.289 322.721 176.683 323.436 177.263C324.148 177.827 324.777 178.581 325.324 179.527C325.882 180.454 326.309 181.566 326.604 182.862C326.926 184.296 327.009 185.688 326.853 187.038C326.694 188.372 326.366 189.572 325.869 190.637C325.385 191.684 324.763 192.551 324.003 193.236C323.246 193.938 322.444 194.361 321.597 194.507ZM315.394 185.884C315.467 186.347 315.572 186.86 315.712 187.422C315.848 187.969 316.025 188.523 316.244 189.086C316.463 189.649 316.718 190.197 317.011 190.729C317.316 191.244 317.657 191.696 318.033 192.085C318.41 192.475 318.825 192.777 319.28 192.993C319.735 193.208 320.234 193.28 320.777 193.208C321.304 193.139 321.787 192.92 322.226 192.55C322.664 192.18 323.044 191.71 323.364 191.139C323.7 190.566 323.974 189.917 324.186 189.193C324.398 188.469 324.551 187.731 324.647 186.981C324.739 186.216 324.772 185.47 324.745 184.744C324.714 184.002 324.624 183.319 324.473 182.696C324.316 182.121 324.167 181.633 324.026 181.23C323.883 180.812 323.728 180.46 323.562 180.173C323.615 180.45 323.638 180.739 323.633 181.043C323.639 181.328 323.6 181.622 323.515 181.924C323.429 182.227 323.287 182.524 323.088 182.817C322.905 183.106 322.645 183.371 322.309 183.61C321.806 183.976 321.312 184.222 320.827 184.346C320.339 184.455 319.887 184.462 319.471 184.366C319.055 184.271 318.683 184.071 318.355 183.768C318.039 183.447 317.8 183.031 317.639 182.521C317.463 182.013 317.414 181.546 317.491 181.117C317.581 180.671 317.737 180.283 317.961 179.954C318.181 179.61 318.454 179.327 318.777 179.106C319.101 178.885 319.429 178.727 319.76 178.632C319.868 178.612 320.017 178.599 320.207 178.595C320.394 178.575 320.59 178.601 320.794 178.673C320.996 178.73 321.187 178.853 321.366 179.042C321.545 179.23 321.677 179.507 321.763 179.873C321.851 180.253 321.83 180.599 321.699 180.911C321.58 181.204 321.404 181.452 321.173 181.655C320.956 181.856 320.713 181.998 320.443 182.081C320.185 182.146 319.955 182.15 319.753 182.093C319.564 182.018 319.439 181.907 319.379 181.759C319.316 181.596 319.302 181.44 319.337 181.29C319.369 181.125 319.438 180.984 319.543 180.869C319.664 180.75 319.804 180.692 319.963 180.693C320.205 180.711 320.368 180.815 320.452 181.006C320.549 181.178 320.59 181.353 320.576 181.531C320.868 181.395 321.06 181.192 321.152 180.92C321.258 180.645 321.279 180.379 321.214 180.121C321.164 179.86 321.036 179.646 320.829 179.478C320.634 179.293 320.376 179.231 320.053 179.292C319.47 179.403 319 179.692 318.644 180.158C318.284 180.608 318.164 181.188 318.284 181.897C318.328 182.127 318.398 182.368 318.493 182.62C318.589 182.872 318.727 183.093 318.906 183.281C319.1 183.467 319.341 183.604 319.629 183.692C319.913 183.765 320.275 183.744 320.714 183.628C321.138 183.515 321.493 183.336 321.781 183.09C322.08 182.826 322.311 182.536 322.473 182.219C322.648 181.883 322.763 181.527 322.818 181.151C322.873 180.774 322.866 180.402 322.796 180.033C322.685 179.37 322.504 178.84 322.254 178.443C322 178.03 321.71 177.719 321.384 177.511C321.07 177.285 320.734 177.15 320.376 177.107C320.033 177.061 319.707 177.06 319.397 177.103C318.719 177.216 318.11 177.571 317.572 178.167C317.031 178.748 316.577 179.455 316.211 180.288C315.845 181.121 315.583 182.038 315.424 183.039C315.277 184.021 315.267 184.97 315.394 185.884ZM328.48 178.185C328.246 177.546 328.009 177.01 327.768 176.579C327.526 176.148 327.261 175.801 326.972 175.538C326.681 175.26 326.364 175.058 326.022 174.932C325.661 174.794 325.257 174.72 324.81 174.71L324.792 174.117C325.04 174.165 325.346 174.226 325.71 174.299C326.071 174.358 326.477 174.4 326.927 174.425C327.39 174.432 327.885 174.401 328.413 174.332C328.953 174.245 329.524 174.073 330.127 173.814C330.142 174.225 330.173 174.72 330.22 175.3C330.282 175.877 330.349 176.436 330.421 176.979C330.57 176.426 330.766 175.872 331.01 175.316C331.266 174.742 331.582 174.229 331.957 173.775C332.344 173.304 332.796 172.923 333.314 172.634C333.846 172.341 334.461 172.184 335.157 172.163C335.696 172.155 336.217 172.302 336.72 172.604C337.22 172.89 337.673 173.305 338.079 173.848C338.482 174.375 338.818 175.011 339.087 175.755C339.356 176.499 339.533 177.3 339.618 178.159C339.69 179.036 339.684 179.88 339.6 180.692C339.516 181.503 339.329 182.231 339.038 182.875C338.76 183.501 338.368 184.029 337.861 184.459C337.367 184.872 336.745 185.11 335.993 185.174C335.493 185.222 335.011 185.194 334.546 185.092C334.094 184.972 333.663 184.799 333.254 184.575C332.843 184.336 332.462 184.05 332.113 183.719C331.763 183.388 331.449 183.035 331.171 182.658C331.247 183.057 331.341 183.509 331.453 184.012C331.562 184.5 331.682 185.003 331.812 185.518C331.939 186.019 332.076 186.526 332.221 187.039C332.364 187.537 332.507 187.995 332.651 188.413C332.827 188.92 333.021 189.312 333.233 189.59C333.442 189.852 333.655 190.05 333.872 190.184C334.085 190.302 334.29 190.374 334.486 190.401C334.681 190.427 334.853 190.45 335 190.47L334.991 190.925C334.464 190.914 333.929 190.944 333.386 191.016C332.858 191.085 332.35 191.174 331.862 191.283C331.392 191.405 330.958 191.543 330.558 191.699C330.173 191.852 329.869 192.006 329.644 192.16L329.498 191.52C329.665 191.313 329.82 191.124 329.962 190.954C330.102 190.768 330.207 190.525 330.277 190.226C330.362 189.923 330.399 189.534 330.388 189.059C330.389 188.566 330.329 187.917 330.207 187.113C329.964 185.505 329.728 183.936 329.5 182.405C329.268 180.858 328.928 179.452 328.48 178.185ZM330.801 179.722C330.853 180.158 330.999 180.631 331.239 181.142C331.492 181.635 331.811 182.099 332.197 182.534C332.595 182.951 333.042 183.295 333.539 183.566C334.052 183.834 334.588 183.939 335.15 183.879C335.634 183.835 336.034 183.679 336.349 183.412C336.664 183.145 336.912 182.819 337.093 182.435C337.29 182.047 337.431 181.623 337.518 181.161C337.605 180.699 337.653 180.244 337.663 179.797C337.671 179.334 337.653 178.908 337.61 178.518C337.58 178.111 337.548 177.775 337.513 177.511C337.431 177.081 337.299 176.637 337.116 176.179C336.93 175.705 336.69 175.282 336.396 174.908C336.118 174.532 335.791 174.237 335.416 174.022C335.056 173.804 334.666 173.72 334.246 173.768C333.691 173.858 333.184 174.122 332.727 174.559C332.282 174.978 331.908 175.479 331.606 176.061C331.303 176.644 331.08 177.267 330.937 177.931C330.79 178.579 330.745 179.176 330.801 179.722Z" fill="#FF0000"/>
<mask id="path-19-inside-3_3_217" fill="white">
<path fill-rule="evenodd" clip-rule="evenodd" d="M561.914 21.1923C556.155 21.4592 551.633 25.7986 551.505 31.0257C551.479 31.0333 551.453 31.0409 551.426 31.0486C550.998 29.1614 549.096 27.7928 546.883 27.8953C544.428 28.0091 542.521 29.8903 542.623 32.097C542.624 32.1021 542.624 32.1072 542.624 32.1123C540.236 32.3721 538.208 33.6922 537.054 35.5417C536.505 35.4472 535.936 35.4101 535.354 35.4371C531.263 35.6267 528.092 38.911 528.271 42.7729C528.45 46.6347 531.911 49.6117 536.002 49.4221C538.604 49.3015 540.833 47.93 542.066 45.9545C542.614 46.049 543.183 46.0861 543.765 46.0591C543.87 46.0543 543.973 46.0474 544.077 46.0386C545.989 50.055 550.42 52.7583 555.448 52.5253C555.676 52.5147 555.902 52.4982 556.127 52.476C558.932 60.9904 567.74 66.9718 577.872 66.5022C584.302 66.2042 589.961 63.3682 593.751 59.1021C595.374 59.4553 597.078 59.6058 598.83 59.5246C608.921 59.057 616.75 51.0748 616.315 41.6961C615.913 33.021 608.582 26.1896 599.498 25.5833C596.997 20.9122 591.613 17.8139 585.527 18.096C579.399 18.38 574.297 22.0099 572.266 26.9433C570.478 23.3712 566.463 20.9815 561.914 21.1923Z"/>
</mask>
<path fill-rule="evenodd" clip-rule="evenodd" d="M561.914 21.1923C556.155 21.4592 551.633 25.7986 551.505 31.0257C551.479 31.0333 551.453 31.0409 551.426 31.0486C550.998 29.1614 549.096 27.7928 546.883 27.8953C544.428 28.0091 542.521 29.8903 542.623 32.097C542.624 32.1021 542.624 32.1072 542.624 32.1123C540.236 32.3721 538.208 33.6922 537.054 35.5417C536.505 35.4472 535.936 35.4101 535.354 35.4371C531.263 35.6267 528.092 38.911 528.271 42.7729C528.45 46.6347 531.911 49.6117 536.002 49.4221C538.604 49.3015 540.833 47.93 542.066 45.9545C542.614 46.049 543.183 46.0861 543.765 46.0591C543.87 46.0543 543.973 46.0474 544.077 46.0386C545.989 50.055 550.42 52.7583 555.448 52.5253C555.676 52.5147 555.902 52.4982 556.127 52.476C558.932 60.9904 567.74 66.9718 577.872 66.5022C584.302 66.2042 589.961 63.3682 593.751 59.1021C595.374 59.4553 597.078 59.6058 598.83 59.5246C608.921 59.057 616.75 51.0748 616.315 41.6961C615.913 33.021 608.582 26.1896 599.498 25.5833C596.997 20.9122 591.613 17.8139 585.527 18.096C579.399 18.38 574.297 22.0099 572.266 26.9433C570.478 23.3712 566.463 20.9815 561.914 21.1923Z" fill="#FFF9C7"/>
<path d="M551.505 31.0257L551.78 31.9872L552.487 31.785L552.505 31.0501L551.505 31.0257ZM551.426 31.0486L550.451 31.27L550.687 32.3075L551.708 32.0082L551.426 31.0486ZM542.624 32.1123L542.732 33.1064L543.67 33.0044L543.623 32.0619L542.624 32.1123ZM537.054 35.5417L536.884 36.5272L537.546 36.6413L537.902 36.0712L537.054 35.5417ZM542.066 45.9545L542.236 44.969L541.573 44.8549L541.217 45.4251L542.066 45.9545ZM544.077 46.0386L544.979 45.6087L544.682 44.9832L543.991 45.0423L544.077 46.0386ZM556.127 52.476L557.076 52.1631L556.826 51.4019L556.028 51.4809L556.127 52.476ZM593.751 59.1021L593.963 58.125L593.392 58.0006L593.003 58.438L593.751 59.1021ZM599.498 25.5833L598.617 26.0554L598.878 26.5442L599.432 26.5811L599.498 25.5833ZM572.266 26.9433L571.372 27.3908L572.355 29.3548L573.191 27.324L572.266 26.9433ZM552.505 31.0501C552.618 26.4138 556.656 22.4371 561.961 22.1913L561.868 20.1934C555.653 20.4814 550.647 25.1834 550.506 31.0014L552.505 31.0501ZM551.708 32.0082C551.732 32.0011 551.756 31.9941 551.78 31.9872L551.23 30.0643C551.202 30.0725 551.173 30.0807 551.145 30.089L551.708 32.0082ZM546.929 28.8943C548.727 28.811 550.145 29.9196 550.451 31.27L552.402 30.8272C551.851 28.4032 549.464 26.7747 546.836 26.8964L546.929 28.8943ZM543.622 32.0507C543.55 30.493 544.923 28.9872 546.929 28.8943L546.836 26.8964C543.933 27.031 541.492 29.2875 541.624 32.1433L543.622 32.0507ZM543.623 32.0619C543.623 32.0576 543.622 32.054 543.622 32.0507L541.624 32.1433C541.625 32.1502 541.625 32.1568 541.625 32.1627L543.623 32.0619ZM537.902 36.0712C538.892 34.4843 540.646 33.3334 542.732 33.1064L542.516 31.1182C539.825 31.4108 537.524 32.9001 536.205 35.0123L537.902 36.0712ZM535.401 36.436C535.91 36.4124 536.406 36.4449 536.884 36.5272L537.224 34.5562C536.604 34.4495 535.962 34.4078 535.308 34.4382L535.401 36.436ZM529.27 42.7266C529.119 39.4699 531.806 36.6026 535.401 36.436L535.308 34.4382C530.72 34.6508 527.065 38.3521 527.272 42.8192L529.27 42.7266ZM535.956 48.4232C532.362 48.5897 529.42 45.9832 529.27 42.7266L527.272 42.8192C527.479 47.2862 531.461 50.6336 536.049 50.421L535.956 48.4232ZM541.217 45.4251C540.16 47.1201 538.231 48.3177 535.956 48.4232L536.049 50.421C538.976 50.2854 541.506 48.74 542.914 46.4839L541.217 45.4251ZM543.719 45.0602C543.21 45.0838 542.713 45.0513 542.236 44.969L541.896 46.94C542.516 47.0467 543.157 47.0884 543.811 47.0581L543.719 45.0602ZM543.991 45.0423C543.901 45.05 543.81 45.056 543.719 45.0602L543.811 47.0581C543.929 47.0526 544.046 47.0449 544.162 47.035L543.991 45.0423ZM555.402 51.5263C550.754 51.7417 546.71 49.2426 544.979 45.6087L543.174 46.4685C545.268 50.8673 550.086 53.7748 555.494 53.5242L555.402 51.5263ZM556.028 51.4809C555.821 51.5014 555.612 51.5166 555.402 51.5263L555.494 53.5242C555.74 53.5128 555.983 53.4951 556.225 53.4711L556.028 51.4809ZM577.825 65.5033C568.102 65.9539 559.729 60.2147 557.076 52.1631L555.177 52.7889C558.135 61.7662 567.377 67.9896 577.918 67.5012L577.825 65.5033ZM593.003 58.438C589.394 62.5006 583.989 65.2177 577.825 65.5033L577.918 67.5012C584.615 67.1908 590.528 64.2358 594.498 59.7662L593.003 58.438ZM598.783 58.5257C597.119 58.6028 595.502 58.4597 593.963 58.125L593.538 60.0792C595.246 60.4508 597.037 60.6087 598.876 60.5235L598.783 58.5257ZM615.316 41.7424C615.722 50.5018 608.393 58.0803 598.783 58.5257L598.876 60.5235C609.449 60.0336 617.777 51.6479 617.314 41.6498L615.316 41.7424ZM599.432 26.5811C608.073 27.1578 614.941 33.6379 615.316 41.7424L617.314 41.6498C616.886 32.4041 609.091 25.2213 599.565 24.5856L599.432 26.5811ZM585.573 19.0949C591.3 18.8295 596.309 21.746 598.617 26.0554L600.38 25.1113C597.685 20.0785 591.926 16.7984 585.48 17.0971L585.573 19.0949ZM573.191 27.324C575.064 22.7736 579.807 19.3621 585.573 19.0949L585.48 17.0971C578.991 17.3978 573.53 21.2463 571.341 26.5626L573.191 27.324ZM561.961 22.1913C566.138 21.9977 569.771 24.193 571.372 27.3908L573.16 26.4957C571.185 22.5494 566.788 19.9654 561.868 20.1934L561.961 22.1913Z" fill="black" fill-opacity="0.8" mask="url(#path-19-inside-3_3_217)"/>
<path d="M548.088 167.99L528.271 42.7729L617.175 38.653L610.022 165.12L548.088 167.99Z" fill="white" stroke="#FF0000" stroke-opacity="0.8"/>
<path d="M543.014 41.7204L550.266 167.448" stroke="#FF0000" stroke-width="2"/>
<path d="M562.424 41.2212L569.676 166.949" stroke="#FF0000" stroke-width="2"/>
<path d="M581.834 40.722L589.086 166.449" stroke="#FF0000" stroke-width="2"/>
<path d="M600.04 39.4809L607.292 165.208" stroke="#FF0000" stroke-width="2"/>
<path d="M606.684 85.2895C607.532 100.016 593.885 113.071 575.79 114.114C557.696 115.156 542.64 103.754 541.792 89.0273C540.943 74.3004 554.59 61.2453 572.685 60.203C590.78 59.1608 605.836 70.5627 606.684 85.2895Z" fill="white" stroke="#FF0000" stroke-width="2"/>
<path d="M556.812 85.1788C556.659 84.5155 556.489 83.9551 556.302 83.4976C556.116 83.04 555.895 82.663 555.641 82.3665C555.385 82.0544 555.096 81.8151 554.772 81.6484C554.431 81.4672 554.039 81.3441 553.596 81.2792L553.652 80.6884C553.892 80.7666 554.188 80.8646 554.54 80.9825C554.891 81.0847 555.289 81.1761 555.732 81.2566C556.191 81.3205 556.686 81.3507 557.218 81.3471C557.765 81.3269 558.353 81.2257 558.983 81.0434C558.947 81.4529 558.917 81.9481 558.893 82.5291C558.884 83.109 558.882 83.6729 558.886 84.2206C559.102 83.6898 559.365 83.1636 559.675 82.6422C560 82.1041 560.376 81.6332 560.804 81.2294C561.246 80.8089 561.742 80.4867 562.291 80.2628C562.855 80.0379 563.484 79.9575 564.177 80.0216C564.714 80.0804 565.213 80.2904 565.675 80.6516C566.136 80.9971 566.535 81.4642 566.871 82.0529C567.206 82.6259 567.461 83.2981 567.637 84.0695C567.813 84.8409 567.89 85.658 567.868 86.5206C567.832 87.3999 567.723 88.2369 567.54 89.0319C567.357 89.8268 567.082 90.526 566.714 91.1294C566.362 91.7163 565.907 92.1923 565.352 92.5576C564.811 92.9062 564.164 93.0661 563.41 93.0372C562.908 93.0232 562.433 92.9369 561.984 92.7784C561.55 92.6034 561.144 92.3795 560.766 92.1067C560.387 91.8184 560.044 91.4886 559.738 91.1172C559.432 90.7458 559.163 90.3563 558.933 89.9486C558.96 90.354 558.998 90.8134 559.047 91.3269C559.095 91.8248 559.152 92.3378 559.218 92.8659C559.283 93.3783 559.356 93.8981 559.438 94.4251C559.519 94.9366 559.604 95.4086 559.695 95.841C559.808 96.366 559.953 96.7793 560.129 97.0809C560.304 97.367 560.491 97.5896 560.689 97.7488C560.887 97.8925 561.081 97.9893 561.272 98.0394C561.463 98.0895 561.631 98.1334 561.774 98.1709L561.71 98.6214C561.188 98.546 560.653 98.5106 560.106 98.5152C559.573 98.5188 559.058 98.5448 558.56 98.5931C558.079 98.656 557.631 98.7402 557.215 98.8457C556.814 98.9503 556.493 99.0653 556.251 99.1908L556.184 98.5375C556.376 98.3527 556.553 98.1845 556.715 98.0329C556.876 97.8658 557.01 97.6378 557.117 97.349C557.238 97.0591 557.323 96.6777 557.37 96.2049C557.432 95.7154 557.452 95.0643 557.43 94.2515C557.386 92.6259 557.345 91.0392 557.306 89.4916C557.266 87.9284 557.101 86.4907 556.812 85.1788ZM558.927 86.9895C558.924 87.4281 559.011 87.9157 559.187 88.4522C559.378 88.9721 559.638 89.4718 559.967 89.9513C560.31 90.4142 560.712 90.8106 561.172 91.1406C561.648 91.4695 562.168 91.639 562.732 91.649C563.219 91.664 563.634 91.5585 563.98 91.3323C564.325 91.1061 564.611 90.8133 564.838 90.4539C565.081 90.0935 565.273 89.6894 565.416 89.2416C565.559 88.7938 565.663 88.3485 565.728 87.9058C565.792 87.4475 565.827 87.0225 565.832 86.6306C565.852 86.2222 565.862 85.8849 565.86 85.6189C565.831 85.1823 565.754 84.7254 565.629 84.2482C565.503 83.7554 565.317 83.3057 565.071 82.899C564.841 82.4914 564.552 82.1579 564.207 81.8988C563.876 81.6386 563.5 81.5067 563.077 81.5031C562.514 81.5243 561.979 81.7238 561.472 82.1016C560.979 82.4627 560.546 82.9139 560.175 83.455C559.803 83.9961 559.505 84.5872 559.281 85.2282C559.056 85.8537 558.938 86.4408 558.927 86.9895ZM575.878 98.7023C575.223 98.7452 574.501 98.5968 573.712 98.2572C572.922 97.9175 572.174 97.3715 571.467 96.6193C570.774 95.8504 570.177 94.8562 569.674 93.6365C569.171 92.4167 568.879 90.9483 568.798 89.2312C568.726 87.6544 568.895 86.2967 569.306 85.158C569.731 84.0027 570.279 83.0507 570.951 82.3021C571.622 81.5534 572.344 80.9893 573.118 80.6097C573.907 80.2291 574.629 80.0174 575.284 79.9744C576.111 79.9202 576.91 80.0479 577.682 80.3574C578.469 80.6659 579.182 81.1516 579.821 81.8143C580.458 82.4615 580.99 83.2879 581.416 84.2934C581.857 85.2823 582.144 86.4379 582.277 87.7601C582.42 89.2226 582.331 90.6142 582.011 91.9349C581.689 93.24 581.217 94.3906 580.593 95.3866C579.984 96.3661 579.26 97.1495 578.422 97.7369C577.585 98.3398 576.737 98.6616 575.878 98.7023ZM570.781 89.383C570.796 89.8518 570.838 90.3736 570.907 90.9485C570.975 91.5077 571.083 92.08 571.231 92.6653C571.379 93.2506 571.565 93.8256 571.79 94.3902C572.03 94.9382 572.312 95.4286 572.638 95.8613C572.964 96.294 573.34 96.6452 573.764 96.9149C574.189 97.1845 574.676 97.3171 575.223 97.3125C575.755 97.3089 576.262 97.1504 576.742 96.837C577.223 96.5237 577.657 96.1037 578.045 95.5772C578.449 95.0496 578.801 94.4394 579.1 93.7465C579.399 93.0535 579.642 92.3408 579.829 91.6082C580.014 90.8601 580.138 90.1239 580.201 89.3995C580.262 88.6595 580.256 87.9709 580.182 87.3337C580.097 86.7443 580.009 86.2412 579.919 85.8243C579.828 85.3918 579.718 85.0233 579.588 84.7186C579.607 84.9992 579.594 85.2897 579.551 85.59C579.523 85.8738 579.448 86.1605 579.326 86.4504C579.204 86.7402 579.027 87.0181 578.793 87.2839C578.576 87.5487 578.286 87.7791 577.923 87.9752C577.379 88.277 576.858 88.4599 576.362 88.5238C575.864 88.5721 575.414 88.5233 575.013 88.3774C574.612 88.2314 574.267 87.9878 573.979 87.6466C573.705 87.2888 573.519 86.8468 573.422 86.3208C573.309 85.7958 573.318 85.3255 573.447 84.9099C573.591 84.4777 573.794 84.1121 574.056 83.813C574.317 83.4984 574.622 83.2513 574.971 83.0719C575.319 82.8925 575.664 82.7759 576.005 82.7222C576.114 82.7151 576.263 82.721 576.452 82.7399C576.64 82.7432 576.831 82.7933 577.026 82.8902C577.219 82.9714 577.393 83.1166 577.547 83.3257C577.702 83.5348 577.799 83.8259 577.84 84.1991C577.881 84.5879 577.817 84.9287 577.648 85.2216C577.494 85.4979 577.29 85.7227 577.035 85.896C576.796 86.0683 576.537 86.1792 576.258 86.2288C575.994 86.2618 575.765 86.2376 575.572 86.1563C575.393 86.0584 575.283 85.9326 575.242 85.7787C575.2 85.6092 575.205 85.4523 575.258 85.3079C575.31 85.1479 575.396 85.017 575.514 84.9153C575.648 84.8125 575.794 84.7716 575.952 84.7926C576.19 84.8396 576.339 84.9629 576.399 85.1626C576.474 85.3456 576.494 85.5244 576.458 85.6989C576.765 85.6005 576.98 85.422 577.104 85.1633C577.244 84.9036 577.297 84.6418 577.264 84.3778C577.247 84.1127 577.146 83.8844 576.961 83.693C576.791 83.4849 576.542 83.3917 576.214 83.4131C575.622 83.452 575.12 83.6806 574.709 84.099C574.297 84.5019 574.107 85.0624 574.138 85.7806C574.154 86.0145 574.193 86.2624 574.257 86.5244C574.322 86.7864 574.431 87.0219 574.586 87.231C574.756 87.4391 574.978 87.6046 575.252 87.7275C575.526 87.8349 575.887 87.8581 576.337 87.7973C576.772 87.7375 577.147 87.6033 577.462 87.3947C577.792 87.1695 578.056 86.9095 578.256 86.6145C578.471 86.3029 578.629 85.9637 578.73 85.597C578.831 85.2302 578.869 84.8597 578.845 84.4855C578.816 83.814 578.702 83.2656 578.502 82.8403C578.301 82.3994 578.051 82.0556 577.753 81.809C577.47 81.5457 577.153 81.3708 576.803 81.2841C576.468 81.1964 576.145 81.155 575.832 81.1599C575.145 81.1893 574.497 81.4666 573.89 81.9919C573.281 82.5015 572.744 83.1474 572.279 83.9296C571.813 84.7117 571.44 85.5896 571.16 86.5631C570.894 87.5201 570.767 88.4601 570.781 89.383ZM584.713 83.3491C584.56 82.6858 584.39 82.1254 584.203 81.6679C584.017 81.2103 583.796 80.8333 583.542 80.5368C583.286 80.2248 582.997 79.9854 582.673 79.8187C582.332 79.6375 581.94 79.5145 581.497 79.4495L581.553 78.8587C581.793 78.9369 582.089 79.035 582.441 79.1528C582.792 79.255 583.19 79.3464 583.633 79.4269C584.092 79.4908 584.587 79.521 585.119 79.5174C585.666 79.4972 586.254 79.396 586.884 79.2137C586.848 79.6232 586.818 80.1184 586.794 80.6994C586.785 81.2793 586.783 81.8432 586.787 82.3909C587.003 81.8601 587.266 81.3339 587.576 80.8125C587.901 80.2745 588.277 79.8035 588.705 79.3997C589.147 78.9792 589.643 78.657 590.192 78.4331C590.756 78.2082 591.385 78.1278 592.079 78.1919C592.615 78.2507 593.114 78.4607 593.576 78.8219C594.037 79.1674 594.436 79.6345 594.772 80.2232C595.107 80.7962 595.362 81.4685 595.538 82.2398C595.714 83.0112 595.791 83.8283 595.77 84.6909C595.733 85.5702 595.624 86.4073 595.441 87.2022C595.258 87.9971 594.983 88.6963 594.615 89.2997C594.263 89.8866 593.808 90.3627 593.253 90.7279C592.712 91.0765 592.065 91.2364 591.311 91.2075C590.809 91.1935 590.334 91.1072 589.885 90.9488C589.451 90.7737 589.045 90.5498 588.667 90.277C588.288 89.9887 587.945 89.6589 587.639 89.2875C587.333 88.9161 587.064 88.5266 586.834 88.1189C586.861 88.5243 586.899 88.9837 586.948 89.4972C586.996 89.9951 587.053 90.5081 587.119 91.0362C587.184 91.5487 587.257 92.0684 587.339 92.5955C587.42 93.1069 587.505 93.5789 587.596 94.0113C587.709 94.5363 587.854 94.9496 588.03 95.2513C588.205 95.5373 588.392 95.7599 588.59 95.9191C588.788 96.0628 588.982 96.1596 589.173 96.2097C589.364 96.2598 589.532 96.3037 589.675 96.3412L589.611 96.7917C589.089 96.7163 588.554 96.6809 588.007 96.6855C587.474 96.6891 586.959 96.7151 586.461 96.7634C585.98 96.8263 585.532 96.9105 585.116 97.016C584.715 97.1206 584.394 97.2356 584.152 97.3611L584.086 96.7078C584.277 96.523 584.454 96.3548 584.616 96.2032C584.777 96.0361 584.911 95.8081 585.018 95.5193C585.139 95.2294 585.224 94.8481 585.271 94.3752C585.333 93.8857 585.353 93.2346 585.331 92.4218C585.287 90.7962 585.246 89.2096 585.207 87.6619C585.167 86.0987 585.002 84.6611 584.713 83.3491ZM586.828 85.1598C586.825 85.5985 586.912 86.086 587.088 86.6225C587.279 87.1424 587.539 87.6421 587.868 88.1216C588.211 88.5845 588.613 88.9809 589.073 89.3109C589.549 89.6398 590.069 89.8093 590.633 89.8193C591.12 89.8343 591.535 89.7288 591.881 89.5026C592.226 89.2764 592.512 88.9836 592.739 88.6242C592.982 88.2638 593.174 87.8597 593.317 87.4119C593.46 86.9641 593.564 86.5188 593.629 86.0761C593.693 85.6178 593.728 85.1928 593.733 84.801C593.753 84.3925 593.763 84.0552 593.761 83.7892C593.732 83.3526 593.655 82.8957 593.53 82.4185C593.404 81.9257 593.218 81.476 592.972 81.0693C592.742 80.6617 592.453 80.3282 592.108 80.0691C591.777 79.8089 591.401 79.677 590.978 79.6734C590.415 79.6946 589.88 79.8941 589.373 80.2719C588.88 80.6331 588.447 81.0842 588.076 81.6253C587.704 82.1664 587.406 82.7575 587.182 83.3985C586.957 84.024 586.839 84.6111 586.828 85.1598Z" fill="#FF0000"/>
<mask id="path-28-inside-4_3_217" fill="white">
<path fill-rule="evenodd" clip-rule="evenodd" d="M875.695 120.614C870.577 117.959 864.489 119.449 861.76 123.909C861.733 123.902 861.707 123.896 861.68 123.889C862.255 122.041 861.294 119.904 859.328 118.884C857.146 117.753 854.553 118.425 853.536 120.386C853.534 120.391 853.532 120.395 853.529 120.4C851.332 119.428 848.916 119.555 846.99 120.577C846.563 120.22 846.089 119.903 845.572 119.635C841.936 117.749 837.546 119.003 835.766 122.435C833.986 125.866 835.491 130.177 839.126 132.063C841.438 133.262 844.054 133.192 846.111 132.1C846.539 132.456 847.012 132.773 847.529 133.042C847.622 133.09 847.715 133.136 847.809 133.18C847.452 137.614 849.932 142.173 854.4 144.491C854.603 144.596 854.807 144.695 855.012 144.788C853.174 153.562 857.8 163.152 866.804 167.822C872.519 170.786 878.837 171.167 884.254 169.373C885.482 170.492 886.881 171.476 888.438 172.283C897.406 176.935 908.18 173.949 912.503 165.614C916.501 157.905 913.579 148.32 906.021 143.244C906.197 137.949 903.09 132.57 897.681 129.764C892.236 126.94 886.002 127.525 881.772 130.777C882.015 126.79 879.737 122.711 875.695 120.614Z"/>
</mask>
<path fill-rule="evenodd" clip-rule="evenodd" d="M875.695 120.614C870.577 117.959 864.489 119.449 861.76 123.909C861.733 123.902 861.707 123.896 861.68 123.889C862.255 122.041 861.294 119.904 859.328 118.884C857.146 117.753 854.553 118.425 853.536 120.386C853.534 120.391 853.532 120.395 853.529 120.4C851.332 119.428 848.916 119.555 846.99 120.577C846.563 120.22 846.089 119.903 845.572 119.635C841.936 117.749 837.546 119.003 835.766 122.435C833.986 125.866 835.491 130.177 839.126 132.063C841.438 133.262 844.054 133.192 846.111 132.1C846.539 132.456 847.012 132.773 847.529 133.042C847.622 133.09 847.715 133.136 847.809 133.18C847.452 137.614 849.932 142.173 854.4 144.491C854.603 144.596 854.807 144.695 855.012 144.788C853.174 153.562 857.8 163.152 866.804 167.822C872.519 170.786 878.837 171.167 884.254 169.373C885.482 170.492 886.881 171.476 888.438 172.283C897.406 176.935 908.18 173.949 912.503 165.614C916.501 157.905 913.579 148.32 906.021 143.244C906.197 137.949 903.09 132.57 897.681 129.764C892.236 126.94 886.002 127.525 881.772 130.777C882.015 126.79 879.737 122.711 875.695 120.614Z" fill="#FFF9C7"/>
<path d="M861.76 123.909L861.516 124.879L862.229 125.058L862.613 124.431L861.76 123.909ZM861.68 123.889L860.725 123.592L860.409 124.608L861.443 124.861L861.68 123.889ZM853.529 120.4L853.125 121.314L853.988 121.696L854.419 120.857L853.529 120.4ZM846.99 120.577L846.35 121.345L846.866 121.775L847.459 121.46L846.99 120.577ZM846.111 132.1L846.752 131.332L846.236 130.901L845.642 131.216L846.111 132.1ZM847.809 133.18L848.806 133.26L848.861 132.57L848.234 132.275L847.809 133.18ZM855.012 144.788L855.991 144.993L856.155 144.209L855.426 143.878L855.012 144.788ZM884.254 169.373L884.928 168.634L884.495 168.24L883.94 168.424L884.254 169.373ZM906.021 143.244L905.022 143.211L905.004 143.765L905.464 144.074L906.021 143.244ZM881.772 130.777L880.774 130.717L880.641 132.909L882.382 131.57L881.772 130.777ZM862.613 124.431C865.033 120.475 870.521 119.057 875.235 121.502L876.155 119.726C870.632 116.862 863.944 118.423 860.907 123.387L862.613 124.431ZM861.443 124.861C861.467 124.867 861.492 124.873 861.516 124.879L862.004 122.939C861.975 122.932 861.946 122.925 861.917 122.918L861.443 124.861ZM858.867 119.772C860.465 120.6 861.137 122.27 860.725 123.592L862.635 124.186C863.373 121.813 862.123 119.207 859.788 117.996L858.867 119.772ZM854.424 120.847C855.142 119.462 857.085 118.847 858.867 119.772L859.788 117.996C857.208 116.658 853.965 117.388 852.649 119.926L854.424 120.847ZM854.419 120.857C854.421 120.853 854.423 120.849 854.424 120.847L852.649 119.926C852.645 119.932 852.642 119.938 852.64 119.943L854.419 120.857ZM847.459 121.46C849.111 120.583 851.206 120.465 853.125 121.314L853.934 119.485C851.459 118.391 848.72 118.526 846.521 119.694L847.459 121.46ZM845.112 120.523C845.564 120.757 845.978 121.034 846.35 121.345L847.631 119.809C847.148 119.406 846.614 119.049 846.033 118.747L845.112 120.523ZM836.654 122.895C838.155 120.001 841.917 118.866 845.112 120.523L846.033 118.747C841.956 116.633 836.937 118.004 834.879 121.974L836.654 122.895ZM839.587 131.175C836.392 129.518 835.153 125.789 836.654 122.895L834.879 121.974C832.82 125.944 834.589 130.836 838.666 132.95L839.587 131.175ZM845.642 131.216C843.877 132.153 841.608 132.224 839.587 131.175L838.666 132.95C841.267 134.3 844.231 134.23 846.58 132.983L845.642 131.216ZM847.99 132.154C847.537 131.919 847.124 131.642 846.752 131.332L845.47 132.867C845.953 133.27 846.487 133.628 847.069 133.929L847.99 132.154ZM848.234 132.275C848.153 132.236 848.071 132.196 847.99 132.154L847.069 133.929C847.173 133.983 847.278 134.035 847.384 134.085L848.234 132.275ZM854.861 143.603C850.731 141.461 848.483 137.272 848.806 133.26L846.812 133.1C846.421 137.956 849.134 142.886 853.94 145.379L854.861 143.603ZM855.426 143.878C855.236 143.792 855.048 143.7 854.861 143.603L853.94 145.379C854.158 145.492 854.378 145.598 854.599 145.699L855.426 143.878ZM867.264 166.934C858.624 162.452 854.253 153.291 855.991 144.993L854.034 144.583C852.096 153.834 856.977 163.851 866.344 168.709L867.264 166.934ZM883.94 168.424C878.781 170.132 872.742 169.775 867.264 166.934L866.344 168.709C872.295 171.796 878.893 172.201 884.568 170.322L883.94 168.424ZM888.898 171.396C887.419 170.629 886.091 169.695 884.928 168.634L883.58 170.112C884.872 171.289 886.343 172.324 887.977 173.171L888.898 171.396ZM911.615 165.154C907.578 172.938 897.438 175.825 888.898 171.396L887.977 173.171C897.373 178.044 908.782 174.96 913.391 166.075L911.615 165.154ZM905.464 144.074C912.654 148.903 915.351 157.952 911.615 165.154L913.391 166.075C917.652 157.859 914.505 147.737 906.579 142.414L905.464 144.074ZM897.221 130.652C902.31 133.292 905.184 138.325 905.022 143.211L907.021 143.277C907.21 137.572 903.87 131.848 898.142 128.877L897.221 130.652ZM882.382 131.57C886.283 128.571 892.097 127.994 897.221 130.652L898.142 128.877C892.375 125.886 885.72 126.48 881.163 129.985L882.382 131.57ZM875.235 121.502C878.947 123.427 880.991 127.147 880.774 130.717L882.771 130.838C883.038 126.433 880.528 121.994 876.155 119.726L875.235 121.502Z" fill="black" fill-opacity="0.8" mask="url(#path-28-inside-4_3_217)"/>
<path d="M790.182 240.731L835.766 122.435L914.772 163.412L845.219 269.277L790.182 240.731Z" fill="white" stroke="#FF0000" stroke-opacity="0.8"/>
<path d="M849.053 128.91L792.338 241.353" stroke="#FF0000" stroke-width="2"/>
<path d="M866.101 138.203L809.386 250.646" stroke="#FF0000" stroke-width="2"/>
<path d="M883.149 147.496L826.434 259.938" stroke="#FF0000" stroke-width="2"/>
<path d="M899.527 155.543L842.812 267.986" stroke="#FF0000" stroke-width="2"/>
<path d="M882.327 198.516C875.682 211.686 857.331 216.147 841.149 207.984C824.967 199.82 817.649 182.409 824.294 169.239C830.938 156.069 849.289 151.608 865.471 159.772C881.653 167.935 888.971 185.346 882.327 198.516Z" fill="white" stroke="#FF0000" stroke-width="2"/>
<path d="M839.221 173.434C839.42 172.783 839.554 172.213 839.622 171.723C839.69 171.234 839.688 170.797 839.616 170.413C839.552 170.015 839.421 169.663 839.224 169.356C839.02 169.029 838.742 168.726 838.392 168.448L838.736 167.964C838.904 168.152 839.111 168.386 839.357 168.664C839.61 168.928 839.908 169.207 840.252 169.499C840.616 169.783 841.03 170.058 841.492 170.321C841.975 170.578 842.535 170.785 843.172 170.943C842.936 171.279 842.662 171.693 842.349 172.183C842.051 172.681 841.767 173.168 841.496 173.644C841.949 173.293 842.44 172.969 842.97 172.673C843.521 172.37 844.082 172.151 844.654 172.016C845.248 171.874 845.838 171.843 846.425 171.924C847.027 172.013 847.611 172.258 848.179 172.661C848.614 172.98 848.941 173.412 849.16 173.956C849.386 174.486 849.496 175.09 849.492 175.768C849.495 176.432 849.38 177.142 849.145 177.898C848.911 178.653 848.568 179.399 848.117 180.135C847.645 180.877 847.131 181.547 846.575 182.143C846.018 182.74 845.43 183.207 844.81 183.545C844.21 183.876 843.578 184.061 842.915 184.098C842.272 184.129 841.632 183.943 840.994 183.541C840.567 183.277 840.199 182.964 839.89 182.602C839.601 182.233 839.362 181.836 839.172 181.41C838.988 180.971 838.857 180.514 838.778 180.039C838.699 179.564 838.662 179.093 838.667 178.625C838.487 178.989 838.289 179.405 838.075 179.874C837.867 180.33 837.66 180.802 837.452 181.292C837.252 181.768 837.054 182.255 836.861 182.752C836.674 183.235 836.512 183.686 836.374 184.106C836.209 184.617 836.127 185.047 836.128 185.396C836.137 185.732 836.187 186.018 836.279 186.255C836.378 186.478 836.497 186.659 836.638 186.799C836.778 186.938 836.901 187.059 837.006 187.164L836.725 187.521C836.311 187.195 835.866 186.896 835.39 186.626C834.927 186.362 834.468 186.127 834.013 185.919C833.565 185.732 833.135 185.581 832.722 185.464C832.323 185.353 831.988 185.292 831.715 185.279L831.985 184.681C832.243 184.617 832.481 184.56 832.697 184.51C832.92 184.446 833.15 184.316 833.387 184.119C833.638 183.929 833.902 183.642 834.18 183.256C834.479 182.863 834.822 182.31 835.21 181.595C835.987 180.167 836.746 178.773 837.488 177.414C838.236 176.041 838.814 174.714 839.221 173.434ZM840.144 176.061C839.922 176.439 839.753 176.904 839.637 177.457C839.541 178.002 839.516 178.565 839.56 179.145C839.625 179.717 839.775 180.262 840.007 180.778C840.254 181.301 840.619 181.708 841.103 181.999C841.516 182.256 841.929 182.373 842.341 182.35C842.753 182.328 843.148 182.218 843.524 182.02C843.915 181.83 844.284 181.577 844.632 181.261C844.98 180.945 845.293 180.612 845.571 180.261C845.856 179.896 846.099 179.546 846.3 179.21C846.522 178.866 846.699 178.579 846.831 178.348C847.025 177.956 847.187 177.522 847.318 177.046C847.455 176.556 847.52 176.074 847.511 175.599C847.516 175.131 847.433 174.698 847.264 174.3C847.108 173.909 846.849 173.607 846.484 173.392C845.987 173.128 845.424 173.033 844.796 173.105C844.188 173.171 843.588 173.345 842.995 173.627C842.402 173.909 841.848 174.271 841.333 174.714C840.825 175.142 840.428 175.591 840.144 176.061ZM848.946 194.69C848.358 194.399 847.807 193.909 847.294 193.219C846.781 192.53 846.407 191.682 846.172 190.677C845.958 189.665 845.939 188.505 846.115 187.198C846.291 185.89 846.774 184.473 847.564 182.946C848.291 181.545 849.118 180.455 850.044 179.676C850.991 178.889 851.942 178.34 852.898 178.028C853.854 177.716 854.762 177.59 855.622 177.649C856.496 177.715 857.227 177.894 857.815 178.185C858.557 178.552 859.185 179.063 859.698 179.717C860.225 180.379 860.599 181.156 860.819 182.05C861.046 182.929 861.093 183.911 860.958 184.995C860.844 186.071 860.513 187.215 859.966 188.426C859.357 189.764 858.583 190.924 857.644 191.906C856.712 192.874 855.727 193.633 854.688 194.183C853.67 194.725 852.651 195.041 851.631 195.129C850.604 195.231 849.709 195.085 848.946 194.69ZM849.204 184.071C848.982 184.484 848.757 184.957 848.529 185.489C848.307 186.007 848.114 186.556 847.949 187.137C847.784 187.718 847.657 188.309 847.569 188.91C847.501 189.504 847.5 190.07 847.566 190.608C847.631 191.146 847.78 191.638 848.012 192.084C848.245 192.53 848.599 192.889 849.076 193.159C849.538 193.423 850.056 193.539 850.628 193.509C851.201 193.478 851.788 193.333 852.387 193.071C853.001 192.817 853.611 192.465 854.217 192.015C854.823 191.565 855.39 191.07 855.919 190.53C856.455 189.976 856.931 189.4 857.348 188.805C857.771 188.195 858.111 187.596 858.367 187.008C858.588 186.455 858.764 185.975 858.895 185.57C859.033 185.15 859.122 184.775 859.163 184.447C859.038 184.699 858.882 184.944 858.694 185.183C858.528 185.414 858.319 185.624 858.068 185.814C857.818 186.004 857.525 186.156 857.19 186.269C856.869 186.389 856.502 186.443 856.09 186.431C855.468 186.42 854.926 186.317 854.464 186.123C854.009 185.916 853.644 185.648 853.37 185.321C853.096 184.994 852.92 184.61 852.841 184.17C852.783 183.723 852.844 183.248 853.024 182.744C853.189 182.233 853.432 181.83 853.752 181.536C854.093 181.234 854.452 181.019 854.829 180.891C855.213 180.75 855.6 180.689 855.992 180.708C856.383 180.727 856.74 180.799 857.062 180.924C857.16 180.972 857.286 181.052 857.44 181.163C857.601 181.26 857.742 181.399 857.861 181.581C857.988 181.748 858.065 181.96 858.095 182.219C858.124 182.477 858.062 182.778 857.91 183.121C857.751 183.478 857.525 183.741 857.232 183.91C856.96 184.072 856.671 184.164 856.363 184.187C856.07 184.216 855.79 184.182 855.524 184.085C855.279 183.982 855.093 183.846 854.967 183.679C854.861 183.505 854.829 183.341 854.87 183.187C854.919 183.019 855.002 182.886 855.12 182.787C855.246 182.675 855.385 182.605 855.539 182.576C855.706 182.554 855.853 182.592 855.979 182.689C856.162 182.849 856.229 183.031 856.181 183.233C856.154 183.429 856.081 183.594 855.963 183.727C856.278 183.796 856.553 183.749 856.79 183.587C857.041 183.432 857.219 183.232 857.322 182.987C857.44 182.749 857.467 182.501 857.403 182.243C857.36 181.978 857.191 181.772 856.897 181.627C856.365 181.363 855.816 181.31 855.251 181.466C854.692 181.608 854.247 181.998 853.914 182.635C853.81 182.846 853.72 183.08 853.645 183.339C853.569 183.598 853.546 183.856 853.575 184.115C853.618 184.38 853.727 184.635 853.903 184.879C854.086 185.108 854.387 185.31 854.807 185.483C855.213 185.648 855.605 185.72 855.982 185.698C856.38 185.668 856.74 185.575 857.06 185.42C857.402 185.258 857.709 185.044 857.98 184.777C858.251 184.51 858.47 184.209 858.636 183.873C858.948 183.277 859.124 182.745 859.164 182.277C859.211 181.795 859.167 181.372 859.033 181.009C858.919 180.64 858.733 180.329 858.473 180.079C858.227 179.835 857.968 179.637 857.695 179.485C857.085 179.166 856.386 179.082 855.597 179.232C854.815 179.368 854.027 179.658 853.232 180.102C852.438 180.546 851.675 181.118 850.944 181.82C850.235 182.515 849.654 183.265 849.204 184.071ZM864.284 185.829C864.484 185.178 864.618 184.608 864.685 184.119C864.753 183.629 864.751 183.193 864.68 182.809C864.615 182.411 864.484 182.058 864.287 181.752C864.083 181.424 863.806 181.121 863.455 180.843L863.799 180.36C863.967 180.548 864.175 180.781 864.42 181.059C864.673 181.324 864.971 181.602 865.315 181.894C865.68 182.179 866.093 182.453 866.555 182.717C867.039 182.973 867.599 183.18 868.235 183.338C867.999 183.675 867.725 184.088 867.413 184.579C867.114 185.076 866.83 185.563 866.559 186.039C867.012 185.688 867.503 185.364 868.033 185.069C868.584 184.766 869.145 184.547 869.718 184.411C870.311 184.269 870.901 184.238 871.489 184.32C872.09 184.408 872.675 184.653 873.242 185.056C873.677 185.376 874.004 185.808 874.223 186.352C874.449 186.882 874.56 187.486 874.556 188.164C874.559 188.827 874.443 189.537 874.209 190.293C873.974 191.049 873.632 191.794 873.181 192.53C872.709 193.273 872.195 193.942 871.638 194.539C871.082 195.135 870.493 195.602 869.873 195.94C869.273 196.272 868.642 196.456 867.978 196.494C867.335 196.525 866.695 196.339 866.058 195.936C865.63 195.672 865.262 195.36 864.953 194.998C864.665 194.629 864.425 194.231 864.235 193.806C864.051 193.366 863.92 192.909 863.841 192.434C863.762 191.96 863.725 191.488 863.73 191.02C863.55 191.384 863.353 191.801 863.138 192.27C862.93 192.725 862.723 193.197 862.515 193.688C862.315 194.164 862.118 194.65 861.924 195.147C861.738 195.63 861.575 196.081 861.438 196.501C861.272 197.012 861.19 197.442 861.192 197.792C861.2 198.127 861.25 198.413 861.342 198.65C861.441 198.874 861.561 199.055 861.701 199.194C861.841 199.333 861.964 199.455 862.069 199.559L861.788 199.917C861.374 199.59 860.929 199.292 860.453 199.021C859.99 198.758 859.532 198.522 859.077 198.314C858.629 198.128 858.198 197.976 857.785 197.859C857.387 197.749 857.051 197.687 856.778 197.675L857.048 197.076C857.307 197.012 857.544 196.955 857.76 196.905C857.984 196.841 858.214 196.711 858.45 196.514C858.701 196.325 858.965 196.037 859.243 195.651C859.542 195.259 859.885 194.705 860.274 193.991C861.05 192.562 861.809 191.168 862.551 189.809C863.3 188.436 863.877 187.11 864.284 185.829ZM865.207 188.456C864.985 188.834 864.816 189.3 864.7 189.852C864.604 190.398 864.579 190.96 864.623 191.54C864.689 192.113 864.838 192.657 865.071 193.173C865.318 193.696 865.683 194.103 866.166 194.395C866.58 194.652 866.992 194.769 867.404 194.746C867.817 194.723 868.211 194.613 868.587 194.416C868.978 194.225 869.347 193.972 869.695 193.656C870.043 193.34 870.356 193.007 870.634 192.656C870.919 192.292 871.162 191.941 871.363 191.605C871.585 191.262 871.762 190.974 871.894 190.743C872.088 190.351 872.25 189.917 872.381 189.441C872.519 188.952 872.583 188.469 872.574 187.994C872.579 187.526 872.497 187.093 872.327 186.695C872.172 186.305 871.912 186.002 871.548 185.787C871.05 185.524 870.487 185.428 869.859 185.501C869.251 185.566 868.651 185.74 868.058 186.022C867.465 186.304 866.912 186.667 866.396 187.109C865.888 187.538 865.492 187.987 865.207 188.456Z" fill="#FF0000"/>
</svg>
